<svg width="25" height="24" viewBox="0 0 25 24" fill="none" xmlns="http://www.w3.org/2000/svg">
<path d="M15.501 0C12.4736 0 10.001 2.47266 10.001 5.5C10.001 8.52734 12.4736 11 15.501 11C18.5283 11 21.001 8.52734 21.001 5.5C21.001 2.47266 18.5283 0 15.501 0ZM15.501 2C17.4463 2 19.001 3.55469 19.001 5.5C19.001 7.44531 17.4463 9 15.501 9C13.5557 9 12.001 7.44531 12.001 5.5C12.001 3.55469 13.5557 2 15.501 2ZM7.47363 12C4.27832 12 0.0400391 13.7617 0.0400391 13.7617L0.778321 15.6211C0.778321 15.6211 5.08301 14 7.47363 14C8.44238 14 10.0947 14.5859 11.4424 15.2734C12.1143 15.6172 12.7236 15.9805 13.1729 16.2773C13.3955 16.4258 13.5752 16.5586 13.6963 16.6523C13.708 16.6602 13.7119 16.668 13.7197 16.6758C13.7705 16.7188 13.8135 16.7617 13.8486 16.8125L13.9111 16.9023C14.04 17.1406 14.0361 17.4336 13.8643 17.6797C13.6729 17.957 13.3291 18.0625 13.0127 17.9531L8.65723 15.8867L7.79785 17.6875L12.29 19.8281L12.3408 19.8438C13.2588 20.168 14.1924 19.8555 14.9229 19.2539H15.2041L15.501 18.832V18.8281C15.8994 18.2617 16.04 17.5938 15.9697 16.9492L20.7393 16.168H20.7432C21.2744 16.0781 21.7744 16.3828 21.9424 16.8906C22.1221 17.4297 21.8799 17.9922 21.3604 18.2188C19.8955 18.8633 17.5127 19.8281 15.3916 20.625C14.333 21.0234 13.3408 21.3789 12.5635 21.6289C12.1768 21.7578 11.8486 21.8555 11.5986 21.9219C11.3525 21.9844 11.1455 22 11.2471 22C11.3096 22 10.8955 21.9062 10.4229 21.6523C9.9502 21.3945 9.37598 21.0312 8.78613 20.6562C8.19629 20.2812 7.59082 19.8945 7.00488 19.5859C6.42285 19.2773 5.90723 19 5.2002 19C3.56348 19 2.10254 19.6328 2.10254 19.6328L2.86816 21.4844C2.86816 21.4844 4.11035 21 5.2002 21C5.17285 21 5.59082 21.0977 6.06738 21.3516C6.54785 21.6055 7.12598 21.9688 7.71582 22.3438C8.30176 22.7188 8.90332 23.1055 9.47363 23.4102C10.0439 23.7188 10.5361 24 11.2471 24C11.5869 24 11.7979 23.9375 12.1064 23.8555C12.4111 23.7734 12.7744 23.6641 13.1846 23.5312C14.0049 23.2656 15.0205 22.9023 16.0947 22.4961C18.251 21.6875 20.6416 20.7188 22.1689 20.0469C23.1846 19.6016 23.6455 18.6211 23.7783 17.5742H24.2822L23.8408 16.2617C23.3643 14.832 21.9033 13.9492 20.4189 14.1953H20.415L14.9424 15.0898C14.9229 15.0742 14.8955 15.0547 14.876 15.043C14.8604 15.0273 14.8447 15.0117 14.8291 15L14.5322 14.7852L14.5283 14.793C14.4424 14.7305 14.376 14.6758 14.2783 14.6094C13.7588 14.2656 13.0947 13.8711 12.3486 13.4922C10.8643 12.7344 9.11816 12 7.47363 12Z" fill="#234092"/>
</svg>
