<?xml version="1.0" encoding="UTF-8"?>
<svg xmlns="http://www.w3.org/2000/svg" xmlns:xlink="http://www.w3.org/1999/xlink" width="64pt" height="64pt" viewBox="0 0 64 64" version="1.1">
<g id="surface1">
<path style=" stroke:none;fill-rule:nonzero;fill:#234092;fill-opacity:1;" d="M 32 8 C 20.976563 8 12 16.976563 12 28 C 12 31.75 13.070313 35.25 14.875 38.25 L 6.625 46.4375 L 6 47 L 6 50 L 14 50 L 14 58 L 16.9375 58 L 17.5625 57.4375 L 27.4375 47.4375 C 28.914063 47.78125 30.421875 48 32 48 C 33.578125 48 35.085938 47.78125 36.5625 47.4375 L 46.4375 57.4375 L 47.0625 58 L 50 58 L 50 50 L 58 50 L 58 47 L 57.375 46.4375 L 49.125 38.25 C 50.929688 35.25 52 31.75 52 28 C 52 16.976563 43.023438 8 32 8 Z M 32 12 C 40.859375 12 48 19.140625 48 28 C 48 36.859375 40.859375 44 32 44 C 23.140625 44 16 36.859375 16 28 C 16 19.140625 23.140625 12 32 12 Z M 30 18 C 30 20.234375 28.234375 22 26 22 L 26 26 C 27.46875 26 28.8125 25.570313 30 24.875 L 30 34 L 26 34 L 26 38 L 38 38 L 38 34 L 34 34 L 34 18 Z M 17.3125 41.5 C 18.984375 43.320313 21.007813 44.835938 23.25 45.9375 L 18 51.1875 L 18 46 L 12.75 46 Z M 46.6875 41.5 L 51.25 46 L 46 46 L 46 51.1875 L 40.75 45.9375 C 42.992188 44.835938 45.015625 43.320313 46.6875 41.5 Z "/>
</g>
</svg>
