<svg width="32" height="32" viewBox="0 0 32 32" fill="none" xmlns="http://www.w3.org/2000/svg">
<g clip-path="url(#clip0_595_2389)">
<path d="M15.9751 32C7.15641 31.9952 -0.00204835 24.8258 4.3967e-07 16.001C0.00204923 7.14276 7.17349 -0.00955143 16.042 9.57448e-06C24.8559 0.00957058 32.0075 7.18784 31.9993 16.0167C31.9911 24.8579 24.8265 32.0048 15.9751 32ZM0.869369 15.9601C0.840003 24.2843 7.61124 31.0944 15.9512 31.1293C24.2617 31.1641 31.0931 24.3949 31.1279 16.0912C31.1627 7.72667 24.4045 0.898061 16.0652 0.87211C7.70685 0.846158 0.898735 7.60579 0.869369 15.9601Z" fill="#234092"/>
<path d="M20.347 10.9404C20.347 11.0531 20.3395 11.1665 20.3484 11.2785C20.4713 12.897 19.729 14.1236 18.5291 15.0885C15.2175 17.7506 11.626 15.3283 10.7881 12.7768C10.603 12.212 10.6317 11.5653 10.631 10.9568C10.631 10.5778 10.5641 10.347 10.1488 10.3258C10.0826 10.3224 10.0191 10.2841 9.95283 10.2698C9.63254 10.1988 9.51849 9.99731 9.52053 9.67497C9.53761 6.46998 11.4737 3.99573 14.5926 3.24929C15.1629 3.1127 15.7591 3.04919 16.3457 3.02665C17.2964 2.98978 18.0968 3.3647 18.7373 4.0688C19.2482 4.63154 19.7262 5.21476 20.3805 5.64227C20.9152 5.99125 21.0825 6.60657 21.1734 7.21369C21.3414 8.33711 21.1754 9.43936 20.8763 10.5198C20.8271 10.6966 20.5976 10.8237 20.4515 10.9732L20.3463 10.9404H20.347ZM10.5408 8.48804C10.5005 8.7537 10.4739 8.98999 10.4268 9.22082C10.3865 9.4175 10.4493 9.5056 10.6474 9.55272C11.6936 9.80131 12.7501 9.94199 13.8264 9.8457C15.3814 9.70707 16.3819 8.94287 16.7309 7.6296C16.7958 7.38579 16.8593 7.15974 17.1536 7.12559C17.45 7.09076 17.5613 7.30862 17.6863 7.52033C18.1514 8.30843 18.6793 9.04804 19.4257 9.59848C19.6258 9.74599 19.8614 9.8457 20.1169 9.98775C20.3088 9.04326 20.431 8.18004 20.2958 7.30111C20.2166 6.7855 20.0151 6.35047 19.5138 6.09437C19.326 5.99876 19.1608 5.84237 19.0132 5.68735C18.6841 5.34178 18.3754 4.97642 18.0517 4.62607C17.6665 4.2088 17.1905 3.93154 16.6216 3.91378C14.9853 3.86324 13.4877 4.27846 12.2338 5.3732C11.5461 5.97349 11.0872 6.73428 10.7887 7.62686C11.5331 7.77779 12.2413 7.81194 12.9536 7.6815C13.6126 7.56062 14.1767 7.27311 14.6056 6.74179C14.8187 6.47818 15.0734 6.4413 15.2817 6.61886C15.4921 6.79847 15.49 7.03613 15.2722 7.31203C14.7955 7.91574 14.1692 8.28521 13.4337 8.47848C12.4892 8.72638 11.5406 8.66492 10.5401 8.48804H10.5408ZM11.5017 10.7096C11.5277 11.4123 11.3788 12.1656 11.751 12.8745C12.2789 13.8798 13.0547 14.6166 14.0941 15.0667C14.7811 15.3644 15.4968 15.4334 16.2317 15.2661C18.3221 14.7901 19.6627 12.9544 19.4626 10.8264C19.4537 10.7349 19.3745 10.6174 19.2946 10.571C18.6301 10.1885 18.1138 9.65038 17.6508 9.0535C17.5443 8.91623 17.4391 8.77692 17.3134 8.61301C16.6025 9.98707 15.4217 10.5717 13.9992 10.6973C13.1892 10.769 12.3683 10.7103 11.5017 10.7103V10.7096Z" fill="#234092"/>
<path d="M10.9644 18.4677C10.7117 17.9514 10.724 17.8872 11.1331 17.5068C11.5497 17.1196 11.9649 16.7303 12.3849 16.3465C12.6683 16.0877 12.8281 16.0808 13.1307 16.3233C13.8757 16.9208 14.616 17.5245 15.3877 18.1494C15.8392 17.7861 16.2885 17.4255 16.7365 17.0629C17.0288 16.8266 17.317 16.5862 17.61 16.3519C17.9146 16.1081 18.0949 16.1143 18.3865 16.382C18.8058 16.7672 19.2217 17.1551 19.6369 17.5437C20.0282 17.9097 20.0426 17.9903 19.794 18.4683C19.9975 18.5394 20.1997 18.6049 20.3977 18.6807C21.5997 19.1444 22.5694 19.9052 23.3125 20.9569C23.477 21.1898 23.5214 21.4172 23.2974 21.6289C23.1007 21.8154 22.8344 21.7471 22.6206 21.5067C22.2587 21.1004 21.9097 20.6763 21.5027 20.3184C20.9406 19.8246 20.2639 19.5248 19.542 19.3206C19.2961 19.251 19.1507 19.2817 19.0052 19.5037C18.7184 19.9407 18.4036 20.3601 18.0956 20.7828C17.8442 21.127 17.623 21.1598 17.2952 20.8921C16.6532 20.3676 16.0174 19.8349 15.3645 19.2926C14.7362 19.813 14.125 20.3204 13.5124 20.8265C13.1191 21.1509 12.9237 21.1243 12.6219 20.7063C12.3289 20.3006 12.0257 19.9011 11.7498 19.4839C11.6207 19.2892 11.4937 19.2503 11.271 19.3056C8.96821 19.8813 7.27796 21.9718 7.19806 24.3634C7.1885 24.6577 7.19669 24.9521 7.19669 25.2867C7.34489 25.2942 7.47533 25.3058 7.60645 25.3058C10.9637 25.3065 14.321 25.3058 17.6783 25.3058C17.7582 25.3058 17.8381 25.3024 17.9173 25.3065C18.2335 25.3236 18.4152 25.4875 18.4145 25.7511C18.4138 26.0147 18.2328 26.1793 17.9118 26.1813C17.1606 26.1868 16.4094 26.1841 15.6582 26.1841C12.779 26.1841 9.89973 26.1841 7.0205 26.1841C6.41201 26.1841 6.32391 26.0871 6.31367 25.4663C6.29796 24.4392 6.30957 23.4155 6.68245 22.4368C7.40635 20.5356 8.72441 19.2428 10.6503 18.5749C10.7459 18.5414 10.8415 18.5086 10.9644 18.4656V18.4677ZM11.8126 18.0763C12.2756 18.7183 12.7175 19.3316 13.1737 19.9646C13.6797 19.5446 14.1653 19.1417 14.6809 18.7135C14.0335 18.1883 13.4141 17.6864 12.7851 17.1756C12.4512 17.4849 12.1445 17.769 11.8126 18.0763ZM17.5799 19.9879C18.0437 19.3432 18.4896 18.7224 18.941 18.0941C18.5934 17.7765 18.2779 17.489 17.9597 17.1981C17.3163 17.7226 16.7044 18.2211 16.0727 18.7361C16.5952 19.1697 17.0739 19.5672 17.5799 19.9879Z" fill="#234092"/>
<path d="M21.3115 25.5108C21.9569 24.9467 22.5893 24.3942 23.221 23.841C23.7776 23.3541 24.3301 22.8631 24.8908 22.3816C25.1592 22.1508 25.4412 22.1637 25.599 22.4055C25.7827 22.6882 25.6413 22.8931 25.4241 23.083C24.4721 23.912 23.5236 24.7452 22.5736 25.5763C22.2567 25.8536 21.9446 26.1357 21.6223 26.4068C21.3512 26.6349 21.149 26.6287 20.9093 26.3733C20.434 25.868 19.9662 25.3558 19.5032 24.8388C19.2949 24.6059 19.299 24.3443 19.5045 24.1784C19.7476 23.9824 19.9696 24.0514 20.1649 24.2631C20.5419 24.6715 20.9168 25.0812 21.3115 25.5108Z" fill="#234092"/>
<path d="M15.4949 21.9453C15.8842 21.9508 16.2052 22.2875 16.1908 22.6754C16.1772 23.053 15.861 23.361 15.4847 23.3624C15.0913 23.3638 14.7731 23.0442 14.7744 22.6488C14.7758 22.2574 15.1015 21.9392 15.4949 21.9446V21.9453Z" fill="#234092"/>
<path d="M16.9572 5.1151C16.9483 5.42378 16.5187 6.00222 16.307 6.01383C16.1575 6.02203 15.9587 5.96876 15.8638 5.86632C15.7805 5.77686 15.7484 5.55012 15.8044 5.43949C15.913 5.223 16.0735 5.01334 16.2626 4.86378C16.3658 4.78183 16.5904 4.77841 16.7243 4.83168C16.8424 4.8788 16.91 5.05295 16.9579 5.1151H16.9572Z" fill="#234092"/>
</g>
<defs>
<clipPath id="clip0_595_2389">
<rect width="31.9993" height="32" fill="white"/>
</clipPath>
</defs>
</svg>
