<svg width="21" height="21" viewBox="0 0 21 21" fill="none" xmlns="http://www.w3.org/2000/svg">
<g clip-path="url(#clip0_706_1831)">
<path d="M6.00246 0C2.69756 0 0 2.69756 0 6.00246V14.6788C0 17.9853 2.69756 20.6813 6.00246 20.6813H14.6788C17.9853 20.6813 20.6813 17.9853 20.6813 14.6788V6.00246C20.6813 2.69756 17.9853 0 14.6788 0H6.00246ZM6.00246 1.59014H14.6788C17.124 1.59014 19.0911 3.55415 19.0911 6.00246V14.6788C19.0911 17.124 17.1271 19.0911 14.6788 19.0911H6.00246C3.55731 19.0911 1.59014 17.1271 1.59014 14.6788V6.00246C1.59014 3.55731 3.55415 1.59014 6.00246 1.59014ZM16.3068 3.18186C15.6474 3.18186 15.1142 3.71664 15.1142 4.37446C15.1142 5.03387 15.6474 5.56865 16.3068 5.56865C16.9662 5.56865 17.4994 5.03387 17.4994 4.37446C17.4994 3.71664 16.9662 3.18186 16.3068 3.18186ZM10.3406 4.772C7.27395 4.772 4.772 7.27395 4.772 10.3406C4.772 13.4073 7.27395 15.9093 10.3406 15.9093C13.4073 15.9093 15.9093 13.4073 15.9093 10.3406C15.9093 7.27395 13.4073 4.772 10.3406 4.772ZM10.3406 6.36372C12.5476 6.36372 14.3176 8.13527 14.3176 10.3406C14.3176 12.5476 12.5476 14.3176 10.3406 14.3176C8.13527 14.3176 6.36372 12.5476 6.36372 10.3406C6.36372 8.13527 8.13527 6.36372 10.3406 6.36372Z" fill="white"/>
</g>
<defs>
<clipPath id="clip0_706_1831">
<rect width="20.9595" height="20.9595" fill="white" transform="scale(1.00193)"/>
</clipPath>
</defs>
</svg>
