<svg width="32" height="32" viewBox="0 0 32 32" fill="none" xmlns="http://www.w3.org/2000/svg">
<path d="M20 2.66675C18.526 2.66675 17.3333 3.85946 17.3333 5.33341C17.3333 6.80737 18.526 8.00008 20 8.00008C21.474 8.00008 22.6667 6.80737 22.6667 5.33341C22.6667 3.85946 21.474 2.66675 20 2.66675ZM15.25 6.66675C11.8073 9.64071 10.3177 13.4115 9.70833 15.5834C9.41146 16.6355 9.69792 17.7605 10.4167 18.5834L13.75 22.4167L16 29.3334H18.6667L16.0833 21.3751L14.125 17.1667C14.125 17.1667 14.3385 14.5417 16.3333 12.3751L20.9583 18.3334L23.0833 17.2084L15.25 6.66675ZM23.1667 18.6667L21.7917 19.4167L23.75 29.3334H25.3333L23.1667 18.6667ZM10.75 21.1251L8 29.3334H10.6667L12.625 23.2084L10.75 21.1251Z" fill="#234092"/>
</svg>
