<svg width="32" height="32" viewBox="0 0 32 32" fill="none" xmlns="http://www.w3.org/2000/svg">
<path d="M15 3C8.95312 3 4 7.95312 4 14C4 16.1641 4.83984 17.9766 5.59375 19.5938C6.34766 21.2109 7 22.6289 7 24.0938V29H9V24.0938C9 22.0586 8.15234 20.3555 7.40625 18.75C6.66016 17.1445 6 15.6367 6 14C6 9.38672 9.51953 5.57031 14 5.0625V12.1562C12.2812 12.6016 11 14.1484 11 16C11 18.1992 12.8008 20 15 20C15.7812 20 16.5078 19.7695 17.125 19.375L19 20.6562C19.0742 21.4141 19.7227 22 20.5 22C21.3281 22 22 21.3281 22 20.5C22 19.6719 21.3281 19 20.5 19C20.3945 19 20.2852 19.0117 20.1875 19.0312L18.5 17.875C18.8047 17.3125 19 16.6836 19 16C19 14.1484 17.7188 12.6016 16 12.1562V5.03125C19.1641 5.28906 20.9805 6.75781 22.0938 8.21875C23.3242 9.82812 23.625 11.4062 23.625 11.4062L23.6562 11.5312L23.7188 11.6562L26.375 17C26.4492 17.1719 26.4414 17.3047 26.4375 17.3438H26.375C25.8398 17.5234 24.75 17.8438 24.75 17.8438L24 18.0312V21C24 21.668 23.625 22.4375 23.0312 23.0312C22.4375 23.625 21.668 24 21 24H19V29H21V26C22.332 26 23.5625 25.375 24.4688 24.4688C25.375 23.5625 26 22.332 26 21V19.5312C26.3398 19.4336 26.5664 19.4023 26.9375 19.2812C26.9688 19.2734 27 19.2578 27.0312 19.25V19.2188C27.6758 19.0156 28.2148 18.4805 28.375 17.9062C28.5469 17.2969 28.4375 16.7344 28.2188 16.2188V16.1875L28.1875 16.1562L25.5312 10.8125L25.5 10.75C25.4219 10.3984 25.0234 8.78906 23.6562 7C22.1367 5.00781 19.3945 3 15 3ZM15 14C16.1172 14 17 14.8828 17 16C17 17.1172 16.1172 18 15 18C13.8828 18 13 17.1172 13 16C13 14.8828 13.8828 14 15 14Z" fill="white"/>
</svg>
