<svg width="36" height="36" viewBox="0 0 36 36" fill="none" xmlns="http://www.w3.org/2000/svg">
<path d="M17.9751 34.0001C9.15631 33.9954 1.99777 26.8259 1.99982 18.001C2.00187 9.1426 9.17339 1.9902 18.042 1.99977C26.856 2.00933 34.0077 9.18768 33.9995 18.0167C33.9913 26.858 26.8266 34.0049 17.9751 34.0001ZM2.8692 17.96C2.83983 26.2843 9.61115 33.0946 17.9512 33.1294C26.2618 33.1642 33.0933 26.395 33.1281 18.0911C33.1629 9.72651 26.4046 2.89783 18.0652 2.87188C9.70676 2.84592 2.89856 9.60563 2.8692 17.96Z" fill="#234092" stroke="#234092"/>
<path d="M22.1143 12.9968C22.1143 13.1034 22.1072 13.2107 22.1156 13.3167C22.2319 14.8486 21.5293 16.0095 20.3936 16.9228C17.2593 19.4423 13.86 17.1497 13.0669 14.7349C12.8918 14.2003 12.9189 13.5882 12.9183 13.0123C12.9183 12.6536 12.8549 12.4351 12.4619 12.4151C12.3992 12.4118 12.3391 12.3756 12.2764 12.3621C11.9733 12.2948 11.8653 12.1042 11.8673 11.7991C11.8834 8.7657 13.7159 6.42393 16.6679 5.71746C17.2076 5.58819 17.7719 5.52808 18.3272 5.50675C19.2269 5.47184 19.9845 5.8267 20.5908 6.49309C21.0742 7.0257 21.5267 7.57769 22.1459 7.98231C22.6521 8.3126 22.8104 8.89497 22.8964 9.46959C23.0554 10.5329 22.8983 11.5761 22.6152 12.5986C22.5687 12.766 22.3515 12.8863 22.2132 13.0278L22.1136 12.9968H22.1143ZM12.833 10.6757C12.7948 10.9271 12.7696 11.1508 12.725 11.3692C12.6869 11.5554 12.7463 11.6388 12.9338 11.6834C13.924 11.9187 14.924 12.0518 15.9427 11.9607C17.4145 11.8295 18.3614 11.1062 18.6917 9.86322C18.7531 9.63247 18.8132 9.41853 19.0918 9.38621C19.3723 9.35325 19.4777 9.55943 19.596 9.75981C20.0362 10.5057 20.5358 11.2057 21.2423 11.7267C21.4317 11.8663 21.6547 11.9607 21.8964 12.0951C22.0781 11.2012 22.1938 10.3842 22.0658 9.55232C21.9908 9.06432 21.8001 8.65259 21.3257 8.4102C21.1479 8.31971 20.9915 8.1717 20.8519 8.02497C20.5403 7.69791 20.2482 7.35211 19.9418 7.02053C19.5772 6.6256 19.1267 6.36318 18.5883 6.34637C17.0396 6.29854 15.6221 6.69153 14.4353 7.72765C13.7844 8.2958 13.3501 9.01584 13.0676 9.86064C13.7721 10.0035 14.4424 10.0358 15.1166 9.91235C15.7404 9.79794 16.2743 9.52582 16.6802 9.02295C16.8819 8.77346 17.123 8.73855 17.3201 8.90661C17.5192 9.0766 17.5172 9.30154 17.311 9.56267C16.8599 10.1341 16.2672 10.4837 15.571 10.6667C14.6771 10.9013 13.7793 10.8431 12.8323 10.6757H12.833ZM13.7424 12.7783C13.767 13.4434 13.6261 14.1564 13.9783 14.8273C14.478 15.7787 15.2123 16.4762 16.1961 16.9021C16.8463 17.1839 17.5237 17.2492 18.2192 17.0908C20.1978 16.6403 21.4666 14.9029 21.2772 12.8888C21.2688 12.8022 21.1938 12.6911 21.1182 12.6471C20.4893 12.2851 20.0006 11.7758 19.5624 11.2109C19.4615 11.081 19.362 10.9491 19.2431 10.794C18.5702 12.0945 17.4526 12.6478 16.1062 12.7667C15.3396 12.8346 14.5627 12.779 13.7424 12.779V12.7783Z" fill="#234092" stroke="#234092"/>
<path d="M13.2338 20.9188C12.9947 20.4302 13.0063 20.3694 13.3935 20.0094C13.7878 19.6429 14.1808 19.2745 14.5783 18.9112C14.8465 18.6663 14.9978 18.6598 15.2841 18.8893C15.9893 19.4548 16.69 20.0262 17.4204 20.6176C17.8477 20.2738 18.273 19.9325 18.697 19.5893C18.9736 19.3656 19.2464 19.1381 19.5237 18.9164C19.812 18.6856 19.9826 18.6915 20.2586 18.9448C20.6555 19.3094 21.0491 19.6765 21.4421 20.0443C21.8125 20.3907 21.8261 20.467 21.5908 20.9195C21.7834 20.9867 21.9748 21.0487 22.1622 21.1205C23.2998 21.5594 24.2177 22.2794 24.9209 23.2748C25.0767 23.4952 25.1187 23.7105 24.9067 23.9108C24.7206 24.0873 24.4685 24.0227 24.2662 23.7951C23.9236 23.4106 23.5933 23.0092 23.208 22.6705C22.6761 22.2031 22.0355 21.9194 21.3523 21.7261C21.1196 21.6602 20.9819 21.6893 20.8442 21.8994C20.5728 22.313 20.2748 22.7099 19.9833 23.11C19.7454 23.4358 19.536 23.4668 19.2257 23.2134C18.6181 22.717 18.0164 22.2128 17.3984 21.6996C16.8038 22.1922 16.2252 22.6724 15.6454 23.1514C15.2731 23.4584 15.0883 23.4332 14.8026 23.0376C14.5253 22.6537 14.2383 22.2755 13.9772 21.8806C13.855 21.6964 13.7348 21.6596 13.524 21.7119C11.3445 22.2568 9.74469 24.2353 9.66906 26.4989C9.66001 26.7774 9.66777 27.056 9.66777 27.3727C9.80803 27.3799 9.93149 27.3908 10.0556 27.3908C13.2332 27.3915 16.4108 27.3908 19.5883 27.3908C19.664 27.3908 19.7396 27.3876 19.8146 27.3915C20.1138 27.4077 20.2858 27.5628 20.2851 27.8123C20.2845 28.0618 20.1132 28.2175 19.8094 28.2195C19.0984 28.2247 18.3874 28.2221 17.6764 28.2221C14.9512 28.2221 12.2261 28.2221 9.501 28.2221C8.92508 28.2221 8.8417 28.1303 8.832 27.5427C8.81714 26.5706 8.82812 25.6017 9.18105 24.6755C9.8662 22.876 11.1137 21.6524 12.9365 21.0203C13.027 20.9886 13.1175 20.9576 13.2338 20.9169V20.9188ZM14.0366 20.5485C14.4749 21.156 14.8931 21.7365 15.3248 22.3357C15.8038 21.9381 16.2634 21.5568 16.7514 21.1515C16.1386 20.6545 15.5524 20.1794 14.9571 19.6959C14.641 19.9887 14.3508 20.2576 14.0366 20.5485ZM19.4953 22.3576C19.9342 21.7475 20.3562 21.1599 20.7835 20.5653C20.4545 20.2647 20.1559 19.9926 19.8546 19.7172C19.2458 20.2136 18.6666 20.6855 18.0687 21.1728C18.5632 21.5833 19.0163 21.9595 19.4953 22.3576Z" fill="#234092" stroke="#234092"/>
<path d="M23.0268 27.5846C23.6376 27.0507 24.2362 26.5278 24.8341 26.0043C25.3609 25.5434 25.8838 25.0787 26.4145 24.623C26.6685 24.4045 26.9354 24.4168 27.0847 24.6456C27.2586 24.9132 27.1248 25.1071 26.9193 25.2868C26.0182 26.0715 25.1204 26.86 24.2213 27.6467C23.9214 27.9091 23.626 28.176 23.3209 28.4326C23.0643 28.6485 22.873 28.6427 22.6461 28.401C22.1962 27.9227 21.7534 27.4379 21.3152 26.9486C21.118 26.7282 21.1219 26.4806 21.3165 26.3236C21.5466 26.1381 21.7567 26.2033 21.9415 26.4037C22.2983 26.7902 22.6532 27.1781 23.0268 27.5846Z" fill="#234092" stroke="#234092"/>
<path d="M17.4322 24.6883C17.8702 24.6945 18.2313 25.0733 18.2151 25.5097C18.1998 25.9345 17.844 26.281 17.4207 26.2826C16.9781 26.2841 16.6201 25.9245 16.6216 25.4797C16.6232 25.0395 16.9897 24.6814 17.4322 24.6876V24.6883Z" fill="#234092"/>
<path d="M19.0771 5.75458C19.0672 6.10185 18.5839 6.75259 18.3457 6.76565C18.1775 6.77487 17.9539 6.71494 17.8471 6.5997C17.7533 6.49905 17.7172 6.24398 17.7802 6.11952C17.9024 5.87597 18.083 5.6401 18.2958 5.47184C18.4118 5.37965 18.6646 5.37581 18.8152 5.43573C18.9481 5.48875 19.0241 5.68466 19.0779 5.75458H19.0771Z" fill="#234092"/>
</svg>
