<svg width="21" height="21" viewBox="0 0 21 21" fill="none" xmlns="http://www.w3.org/2000/svg">
<g clip-path="url(#clip0_873_803)">
<path d="M16.8038 0H3.87756C1.73685 0 0 1.73685 0 3.87756V16.8038C0 18.9445 1.73685 20.6813 3.87756 20.6813H16.8038C18.9445 20.6813 20.6813 18.9445 20.6813 16.8038V3.87756C20.6813 1.73685 18.9445 0 16.8038 0ZM16.2785 11.1389H14.3429V18.3024H11.1121V11.1389H9.85637V8.72529H11.1121V7.1872C11.1121 5.17428 11.9466 3.97694 14.3239 3.97694H16.7296V6.38267H15.3304C14.4075 6.38267 14.346 6.72341 14.346 7.3702L14.3429 8.72529H16.5435L16.2785 11.1389Z" fill="#234092"/>
</g>
<defs>
<clipPath id="clip0_873_803">
<rect width="20.9595" height="20.9595" fill="white" transform="scale(1.00193)"/>
</clipPath>
</defs>
</svg>