<svg width="32" height="32" viewBox="0 0 32 32" fill="none" xmlns="http://www.w3.org/2000/svg">
<path d="M15.8725 2.31616L12.2525 5.89741C12.0863 6.05616 12.0163 6.29241 12.0738 6.51491C12.13 6.73866 12.3038 6.91241 12.525 6.97116C12.7475 7.03116 12.9838 6.96366 13.145 6.79991L15.2375 4.73241V11.4287C15.235 11.6562 15.355 11.8699 15.5525 11.9862C15.7513 12.1012 15.995 12.1012 16.1925 11.9862C16.3913 11.8699 16.51 11.6562 16.5075 11.4287V4.73241L18.6013 6.79991C18.7625 6.96366 18.9975 7.03116 19.2213 6.97116C19.4425 6.91241 19.615 6.73866 19.6725 6.51491C19.73 6.29241 19.66 6.05616 19.4938 5.89741L15.8725 2.31616ZM6.31502 12.0737C6.15127 12.0812 5.99502 12.1499 5.88002 12.2687L2.30127 15.8899L5.88002 19.5112C6.03877 19.6774 6.27502 19.7474 6.49752 19.6899C6.72127 19.6324 6.89502 19.4587 6.95377 19.2387C7.01377 19.0149 6.94752 18.7799 6.78377 18.6187L4.71252 16.5249H11.4113C11.64 16.5274 11.8525 16.4087 11.9688 16.2099C12.0838 16.0124 12.0838 15.7687 11.9688 15.5699C11.8525 15.3724 11.64 15.2524 11.4113 15.2549H4.71252L6.78377 13.1624C6.96877 12.9787 7.02627 12.6987 6.92252 12.4574C6.81752 12.2174 6.57752 12.0662 6.31502 12.0737ZM25.4113 12.0737C25.1538 12.0737 24.9213 12.2299 24.8213 12.4674C24.7225 12.7062 24.7788 12.9812 24.9625 13.1624L27.0338 15.2549H20.335C20.1063 15.2524 19.8938 15.3724 19.7763 15.5699C19.6625 15.7687 19.6625 16.0124 19.7763 16.2099C19.8938 16.4087 20.1063 16.5274 20.335 16.5249H27.0338L24.9625 18.6187C24.7988 18.7799 24.7325 19.0149 24.7913 19.2387C24.8513 19.4587 25.025 19.6324 25.2475 19.6899C25.4713 19.7474 25.7063 19.6774 25.865 19.5112L29.4475 15.8899L25.865 12.2687C25.7463 12.1449 25.5825 12.0762 25.4113 12.0737ZM15.8625 19.7099C15.5138 19.7149 15.2338 20.0024 15.2375 20.3549V27.0512L13.145 24.9799C13.0263 24.8587 12.86 24.7912 12.6888 24.7912C12.43 24.7937 12.1975 24.9499 12.1038 25.1912C12.0063 25.4312 12.0663 25.7037 12.2525 25.8824L15.8725 29.4637L19.4938 25.8824C19.66 25.7262 19.73 25.4887 19.6725 25.2674C19.615 25.0449 19.4425 24.8712 19.2213 24.8112C18.9975 24.7524 18.7625 24.8162 18.6013 24.9799L16.5075 27.0512V20.3549C16.51 20.1812 16.4438 20.0174 16.3225 19.8962C16.2 19.7737 16.0338 19.7074 15.8625 19.7099Z" fill="#234092"/>
</svg>
