<svg width="21" height="21" viewBox="0 0 21 21" fill="none" xmlns="http://www.w3.org/2000/svg">
<g clip-path="url(#clip0_184_11269)">
<path d="M20.3241 4.40804C19.6013 4.72784 18.8242 4.9453 18.0088 5.04124C18.8402 4.54236 19.4798 3.75246 19.7804 2.81227C19.0033 3.27277 18.1399 3.60856 17.2221 3.79084C16.4865 3.00734 15.4376 2.51486 14.28 2.51486C12.0542 2.51486 10.2473 4.3217 10.2473 6.54747C10.2473 6.86407 10.2825 7.17108 10.3529 7.46529C7.00141 7.29899 4.03052 5.69362 2.04459 3.25358C1.69601 3.8484 1.49774 4.54236 1.49774 5.28109C1.49774 6.67859 2.20768 7.913 3.29179 8.63574C2.62981 8.61335 2.00941 8.43427 1.46576 8.13046C1.46576 8.14965 1.46576 8.16564 1.46576 8.18163C1.46576 10.1356 2.85367 11.7665 4.69889 12.1343C4.35991 12.227 4.00493 12.2782 3.63717 12.2782C3.37813 12.2782 3.1223 12.2526 2.87925 12.2047C3.39093 13.8068 4.88117 14.9709 6.64324 15.0061C5.26493 16.087 3.52524 16.7298 1.63845 16.7298C1.31226 16.7298 0.99246 16.7106 0.675863 16.6722C2.46032 17.8171 4.57737 18.4854 6.85431 18.4854C14.2704 18.4854 18.3254 12.3422 18.3254 7.01438C18.3254 6.84169 18.319 6.6658 18.3126 6.49311C19.0993 5.92387 19.7836 5.21393 20.3241 4.40804Z" fill="white"/>
</g>
<defs>
<clipPath id="clip0_184_11269">
<rect width="20.9595" height="20.9595" fill="white" transform="scale(1.00193)"/>
</clipPath>
</defs>
</svg>
