<svg width="21" height="21" viewBox="0 0 21 21" fill="none" xmlns="http://www.w3.org/2000/svg">
<path d="M3.33288 1.25309C1.88831 1.25309 0.836674 2.12016 0.836674 3.31207C0.836674 4.50808 1.9121 5.41125 3.33288 5.41125C4.77827 5.41125 5.82827 4.52941 5.82827 3.28746C5.76347 2.09144 4.73316 1.25309 3.33288 1.25309ZM1.25011 6.24961C1.02042 6.24961 0.833393 6.43664 0.833393 6.66632V18.7495C0.833393 18.9792 1.02042 19.1662 1.25011 19.1662H5.41648C5.64616 19.1662 5.83319 18.9792 5.83319 18.7495V6.66632C5.83319 6.43664 5.64616 6.24961 5.41648 6.24961H1.25011ZM7.50007 6.24961C7.27038 6.24961 7.08335 6.43664 7.08335 6.66632V18.7495C7.08335 18.9792 7.27038 19.1662 7.50007 19.1662H11.2497C11.4794 19.1662 11.6664 18.9792 11.6664 18.7495V12.2912C11.6664 11.3035 12.4252 10.4996 13.3915 10.4242C13.4424 10.416 13.4908 10.416 13.5417 10.416C13.5917 10.416 13.6409 10.416 13.691 10.4242C14.6581 10.4996 15.4169 11.3035 15.4169 12.2912V18.7495C15.4169 18.9792 15.6039 19.1662 15.8336 19.1662H19.5833C19.813 19.1662 20 18.9792 20 18.7495V11.6661C20 8.9714 18.553 6.24961 15.3291 6.24961C13.8624 6.24961 12.7542 6.81644 12.0832 7.28648V6.66632C12.0832 6.43664 11.8961 6.24961 11.6664 6.24961H7.50007Z" fill="white"/>
</svg>
