<svg width="30" height="28" viewBox="0 0 30 28" fill="none" xmlns="http://www.w3.org/2000/svg">
<g clip-path="url(#clip0_616_1974)">
<path d="M13.3659 28C13.0891 28 12.862 27.7755 12.8557 27.4925C12.8557 27.4587 12.8416 26.8499 12.8518 25.6232C12.2485 26.1035 11.5011 26.3424 10.6541 26.3242C8.8595 26.2762 7.02276 25.0313 6.28807 23.3658C5.8748 22.4299 5.85184 21.4693 6.20644 20.5684C4.41817 20.8644 2.75746 20.3465 1.51766 19.0756C0.16817 17.6892 -0.347136 15.6798 0.238324 14.074C0.502354 13.3484 1.18858 12.1957 2.9322 11.692C0.328885 9.58262 0.260007 7.24863 1.16434 5.66495C2.13118 3.97093 4.39776 2.8351 6.66562 3.56852C6.63118 2.44307 7.02914 1.40329 7.77914 0.767225C8.45389 0.193465 9.41689 -0.0661548 10.5636 0.0143273C12.2154 0.131156 13.7498 0.872371 14.7715 2.04585C15.8046 3.23102 16.2562 4.75369 16.5355 5.94664C17.7396 11.1001 17.1975 16.5106 16.5904 20.6489C16.5674 20.8086 16.5393 20.9631 16.5075 21.1149C17.8276 21.2694 19.0304 21.6043 19.2689 21.6731C19.5393 21.751 19.6975 22.0379 19.6197 22.3144C19.5432 22.5896 19.2613 22.7505 18.9896 22.6727C18.2332 22.4546 17.1911 22.23 16.2192 22.1274C15.6669 23.6255 14.7115 24.5017 13.8837 24.5653C13.8531 26.4943 13.8735 27.4587 13.8735 27.4678C13.8799 27.7547 13.6567 27.9923 13.3748 27.9988C13.371 27.9988 13.3671 27.9988 13.3633 27.9988L13.3659 28ZM7.29317 19.2236C7.45644 19.2236 7.6146 19.3041 7.71154 19.4456C7.84419 19.639 7.83144 19.8973 7.68348 20.0777C6.75235 21.2006 6.91817 22.2547 7.22047 22.9401C7.79317 24.2395 9.28169 25.2481 10.6822 25.2857C11.3506 25.3026 12.2498 25.1014 12.8455 24.0629C12.6516 23.7812 12.5253 23.371 12.5317 22.8025C12.5368 22.2858 12.7498 21.8535 13.1478 21.5511C13.6899 21.1383 14.5598 21.0189 15.4794 21.0396C15.5189 20.867 15.5547 20.6866 15.5814 20.4957C16.1745 16.4509 16.7064 11.1689 15.5432 6.18809C15.2919 5.11326 14.8901 3.74896 14.0087 2.73644C13.1618 1.76417 11.8799 1.15016 10.4921 1.05151C9.8799 1.00737 9.02404 1.06189 8.4322 1.56426C7.6299 2.24576 7.58399 3.4504 7.78934 4.27599C7.83909 4.47589 7.76766 4.68619 7.60822 4.8134C7.44878 4.94061 7.23067 4.95879 7.0521 4.86013C5.11715 3.79699 2.90286 4.68878 2.047 6.18679C1.04955 7.93533 1.96664 9.9396 4.50235 11.5479C4.68985 11.6661 4.78042 11.8932 4.72812 12.1113C4.67582 12.3294 4.49215 12.4878 4.27276 12.5059C2.69623 12.6319 1.60312 13.3172 1.19623 14.4362C0.745977 15.6707 1.1669 17.2414 2.24343 18.3448C3.47812 19.6104 5.25491 19.9427 7.1197 19.2548C7.1771 19.234 7.23577 19.2236 7.29317 19.2236ZM15.1337 22.0703C14.5368 22.0781 14.0393 22.169 13.7575 22.3832C13.6146 22.4909 13.5534 22.6207 13.5521 22.8128C13.5483 23.2179 13.6414 23.519 13.7753 23.5307C14.0585 23.5541 14.6809 23.0738 15.135 22.0703H15.1337Z" fill="white"/>
<path d="M16.6339 28C16.6339 28 16.6263 28 16.6224 28C16.3405 27.9935 16.1173 27.7559 16.1237 27.469C16.1237 27.4587 16.1479 26.3592 16.1071 24.155C16.1033 23.9136 16.2627 23.7007 16.4923 23.6423C16.7219 23.5825 16.9617 23.6942 17.0701 23.9084C17.662 25.0805 18.6199 25.3038 19.3163 25.2856C20.7168 25.248 22.2053 24.2394 22.778 22.94C23.0803 22.2546 23.2461 21.2005 22.315 20.0777C22.1658 19.8985 22.1543 19.6389 22.287 19.4455C22.4196 19.2521 22.662 19.1742 22.8788 19.2547C24.7436 19.9414 26.5217 19.6104 27.7551 18.3447C28.8316 17.2413 29.2525 15.6693 28.8023 14.4361C28.3941 13.3185 27.3023 12.6331 25.7257 12.5059C25.5064 12.4877 25.3227 12.3293 25.2704 12.1112C25.2181 11.8932 25.3086 11.666 25.4961 11.5479C28.0319 9.93952 28.9502 7.93655 27.9515 6.18671C27.0969 4.68871 24.8814 3.79691 22.9464 4.86006C22.7678 4.95741 22.5497 4.93924 22.3903 4.81332C22.2308 4.68741 22.1594 4.47582 22.2092 4.27591C22.4145 3.45032 22.3686 2.24568 21.5663 1.56418C20.9732 1.06052 20.1186 1.0073 19.5064 1.05143C18.1186 1.15009 16.8367 1.76409 15.9898 2.73637C15.1084 3.74888 14.7066 5.11318 14.4553 6.18801C13.6543 9.61499 13.5523 13.4846 14.1326 18.3642C14.1671 18.6485 13.9668 18.9081 13.6875 18.9418C13.4081 18.9769 13.153 18.7731 13.1199 18.4888C12.5242 13.482 12.6339 9.49687 13.463 5.94656C13.7423 4.75361 14.1939 3.23094 15.227 2.04578C16.2513 0.872295 17.7844 0.132378 19.4375 0.0142514C20.5842 -0.0675289 21.5472 0.192091 22.2219 0.765851C22.9719 1.40192 23.3699 2.4417 23.3354 3.56845C25.6033 2.83502 27.8699 3.97216 28.8367 5.66488C29.741 7.24856 29.6722 9.58124 27.0689 11.692C28.8112 12.1956 29.4974 13.3483 29.7627 14.074C30.3482 15.6797 29.8342 17.6905 28.4834 19.0755C27.2449 20.3464 25.5829 20.863 23.7946 20.5684C24.1479 21.4679 24.125 22.4285 23.713 23.3658C22.9783 25.0312 21.1428 26.2761 19.3469 26.3241C18.5 26.3436 17.7525 26.1034 17.1492 25.6232C17.1594 26.8512 17.1467 27.46 17.1454 27.4924C17.139 27.7754 16.912 28 16.6352 28H16.6339Z" fill="white"/>
</g>
<defs>
<clipPath id="clip0_616_1974">
<rect width="30" height="28" fill="white"/>
</clipPath>
</defs>
</svg>
