<svg width="32" height="32" viewBox="0 0 32 32" fill="none" xmlns="http://www.w3.org/2000/svg">
<g clip-path="url(#clip0_595_2079)">
<path d="M26.4024 10.8691C25.0297 10.3953 23.582 11.0573 23.0224 12.4547C22.5967 13.5155 22.2459 14.605 21.8059 15.6578C21.6066 16.1348 21.3228 16.599 20.9864 16.9898C20.3438 17.7331 19.6583 18.4414 18.9456 19.1161C18.724 19.3267 18.3605 19.4846 18.0575 19.4926C16.6768 19.5309 15.2929 19.5309 13.9138 19.4878C13.6125 19.4798 13.2649 19.3028 13.0289 19.1002C11.2034 17.5226 9.85137 15.6355 9.28219 13.2459C9.20884 12.938 9.07492 12.6429 8.95056 12.3494C8.41804 11.1004 7.05965 10.4719 5.72039 10.8468C4.44012 11.2057 3.51539 12.477 3.8805 13.7803C4.49114 15.9593 4.91843 18.2244 6.3948 20.0844C7.61608 21.6221 8.76083 23.2253 9.87529 24.8444C10.1671 25.2671 10.3663 25.8509 10.3695 26.363C10.3743 27.3009 10.3791 28.2405 10.3807 29.18H12.219C12.2174 28.0682 12.2078 26.9564 12.1871 25.8445C12.1759 25.2559 11.9432 24.5939 11.6115 24.1026C10.5864 22.584 9.49742 21.1069 8.37021 19.6633C7.47418 18.5163 6.79658 17.2833 6.41872 15.8763C6.2258 15.1601 5.96751 14.4614 5.72995 13.758C5.55617 13.2395 5.71879 12.8423 6.20826 12.6541C6.7073 12.4611 7.09154 12.6621 7.28286 13.1757C7.65275 14.1711 7.95887 15.1968 8.41007 16.1539C8.78475 16.9531 9.25986 17.7283 9.81629 18.4111C10.5369 19.2932 11.3564 20.1003 12.1903 20.8788C12.4693 21.1404 12.9189 21.3446 13.2968 21.3541C15.1016 21.4036 16.908 21.4036 18.7128 21.3557C19.0907 21.3446 19.5451 21.1388 19.8193 20.8724C20.8493 19.877 21.8298 18.8274 22.8039 17.7762C23.0319 17.5305 23.2025 17.2115 23.3253 16.8988C23.7606 15.7854 24.1719 14.664 24.5785 13.5394C24.7889 12.9556 25.0281 12.3654 25.7997 12.6621C26.4901 12.9269 26.3179 13.4884 26.1935 14.0738C25.5223 17.2466 23.7446 19.8244 21.707 22.2092C20.2195 23.9495 19.679 25.7967 19.7428 28.0842C19.7523 28.4495 19.7619 28.8148 19.7699 29.18H21.6257C21.6289 28.2309 21.6321 27.2818 21.6369 26.3327C21.6385 25.843 21.8266 25.2894 22.1008 24.8811C22.9299 23.648 23.7574 22.3926 24.7443 21.2887C26.5874 19.2278 27.3224 16.6851 28.0829 14.1472C28.5054 12.7386 27.7321 11.3301 26.4024 10.8691Z" fill="#234092"/>
<path d="M16.0327 8.33747C13.4483 8.32312 11.2736 10.4686 11.2863 13.0209C11.3007 15.6513 13.3717 17.7378 15.9753 17.7426C18.6012 17.749 20.7042 15.68 20.7153 13.0799C20.7281 10.491 18.6172 8.35343 16.0327 8.33747ZM16.0088 15.9081C14.4304 15.9113 13.1087 14.5778 13.1421 13.0161C13.174 11.4417 14.4352 10.2006 15.9945 10.2086C17.6095 10.2182 18.885 11.4943 18.8675 13.0815C18.8499 14.6192 17.549 15.9065 16.0088 15.9081Z" fill="#234092"/>
<path d="M16.8809 6.58283H15.1176V2.81982H16.8809V6.58283Z" fill="#234092"/>
<path d="M9.97414 8.25771C9.24073 7.17459 8.55197 6.15847 7.82654 5.08652C8.34949 4.73239 8.81823 4.41495 9.34915 4.05444C10.081 5.13278 10.7697 6.1473 11.5015 7.22564C10.9674 7.58774 10.5003 7.90358 9.97414 8.25931V8.25771Z" fill="#234092"/>
<path d="M22.6317 4.0498C23.1611 4.41191 23.6298 4.73413 24.1544 5.09304C23.4305 6.1634 22.7418 7.18112 22.0115 8.25945C21.4854 7.89895 21.0198 7.57991 20.4825 7.21302C21.2128 6.13788 21.9015 5.12335 22.6301 4.0514L22.6317 4.0498Z" fill="#234092"/>
</g>
<defs>
<clipPath id="clip0_595_2079">
<rect width="24.3985" height="26.3602" fill="white" transform="translate(3.80078 2.81982)"/>
</clipPath>
</defs>
</svg>
