<svg width="21" height="21" viewBox="0 0 21 21" fill="none" xmlns="http://www.w3.org/2000/svg">
<path d="M3.33288 1.25312C1.88831 1.25312 0.836674 2.12019 0.836674 3.3121C0.836674 4.50811 1.9121 5.41128 3.33288 5.41128C4.77827 5.41128 5.82827 4.52944 5.82827 3.28749C5.76347 2.09148 4.73316 1.25312 3.33288 1.25312ZM1.25011 6.24964C1.02042 6.24964 0.833393 6.43667 0.833393 6.66635V18.7495C0.833393 18.9792 1.02042 19.1663 1.25011 19.1663H5.41648C5.64616 19.1663 5.83319 18.9792 5.83319 18.7495V6.66635C5.83319 6.43667 5.64616 6.24964 5.41648 6.24964H1.25011ZM7.50007 6.24964C7.27038 6.24964 7.08335 6.43667 7.08335 6.66635V18.7495C7.08335 18.9792 7.27038 19.1663 7.50007 19.1663H11.2497C11.4794 19.1663 11.6664 18.9792 11.6664 18.7495V12.2912C11.6664 11.3036 12.4252 10.4997 13.3915 10.4242C13.4424 10.416 13.4908 10.416 13.5417 10.416C13.5917 10.416 13.6409 10.416 13.691 10.4242C14.6581 10.4997 15.4169 11.3036 15.4169 12.2912V18.7495C15.4169 18.9792 15.6039 19.1663 15.8336 19.1663H19.5833C19.813 19.1663 20 18.9792 20 18.7495V11.6662C20 8.97143 18.553 6.24964 15.3291 6.24964C13.8624 6.24964 12.7542 6.81647 12.0832 7.28651V6.66635C12.0832 6.43667 11.8961 6.24964 11.6664 6.24964H7.50007Z" fill="#234092"/>
</svg>
