<svg width="21" height="21" viewBox="0 0 21 21" fill="none" xmlns="http://www.w3.org/2000/svg">
<path d="M3.33289 1.25315C1.88832 1.25315 0.836677 2.12022 0.836677 3.31214C0.836677 4.50816 1.91211 5.41132 3.33289 5.41132C4.77829 5.41132 5.82829 4.52949 5.82829 3.28753C5.76349 2.09151 4.73317 1.25315 3.33289 1.25315ZM1.25012 6.24969C1.02043 6.24969 0.833395 6.43672 0.833395 6.6664V18.7496C0.833395 18.9793 1.02043 19.1664 1.25012 19.1664H5.41649C5.64618 19.1664 5.83321 18.9793 5.83321 18.7496V6.6664C5.83321 6.43672 5.64618 6.24969 5.41649 6.24969H1.25012ZM7.50009 6.24969C7.2704 6.24969 7.08337 6.43672 7.08337 6.6664V18.7496C7.08337 18.9793 7.2704 19.1664 7.50009 19.1664H11.2497C11.4794 19.1664 11.6665 18.9793 11.6665 18.7496V12.2913C11.6665 11.3036 12.4253 10.4997 13.3916 10.4243C13.4424 10.4161 13.4908 10.4161 13.5417 10.4161C13.5917 10.4161 13.641 10.4161 13.691 10.4243C14.6582 10.4997 15.4169 11.3036 15.4169 12.2913V18.7496C15.4169 18.9793 15.604 19.1664 15.8337 19.1664H19.5833C19.813 19.1664 20 18.9793 20 18.7496V11.6662C20 8.97149 18.553 6.24969 15.3292 6.24969C13.8624 6.24969 12.7542 6.81652 12.0832 7.28656V6.6664C12.0832 6.43672 11.8962 6.24969 11.6665 6.24969H7.50009Z" fill="white"/>
</svg>
