<svg width="21" height="21" viewBox="0 0 21 21" fill="none" xmlns="http://www.w3.org/2000/svg">
<g clip-path="url(#clip0_184_11263)">
<path d="M16.8037 0H3.87754C1.73685 0 0 1.73685 0 3.87754V16.8037C0 18.9444 1.73685 20.6813 3.87754 20.6813H16.8037C18.9444 20.6813 20.6813 18.9444 20.6813 16.8037V3.87754C20.6813 1.73685 18.9444 0 16.8037 0ZM16.2784 11.1389H14.3428V18.3024H11.1121V11.1389H9.85635V8.72526H11.1121V7.18718C11.1121 5.17427 11.9466 3.97693 14.3239 3.97693H16.7296V6.38265H15.3303C14.4075 6.38265 14.346 6.72339 14.346 7.37017L14.3428 8.72526H16.5435L16.2784 11.1389Z" fill="white"/>
</g>
<defs>
<clipPath id="clip0_184_11263">
<rect width="20.9595" height="20.9595" fill="white" transform="scale(1.00193)"/>
</clipPath>
</defs>
</svg>
