<svg width="21" height="21" viewBox="0 0 21 21" fill="none" xmlns="http://www.w3.org/2000/svg">
<g clip-path="url(#clip0_873_806)">
<path d="M6.00248 0C2.69757 0 0 2.69757 0 6.00248V14.6789C0 17.9854 2.69757 20.6813 6.00248 20.6813H14.6789C17.9854 20.6813 20.6813 17.9854 20.6813 14.6789V6.00248C20.6813 2.69757 17.9854 0 14.6789 0H6.00248ZM6.00248 1.59014H14.6789C17.124 1.59014 19.0912 3.55416 19.0912 6.00248V14.6789C19.0912 17.124 17.1272 19.0912 14.6789 19.0912H6.00248C3.55732 19.0912 1.59014 17.1272 1.59014 14.6789V6.00248C1.59014 3.55732 3.55416 1.59014 6.00248 1.59014ZM16.3069 3.18187C15.6475 3.18187 15.1143 3.71665 15.1143 4.37448C15.1143 5.03388 15.6475 5.56866 16.3069 5.56866C16.9663 5.56866 17.4995 5.03388 17.4995 4.37448C17.4995 3.71665 16.9663 3.18187 16.3069 3.18187ZM10.3407 4.77201C7.27397 4.77201 4.77201 7.27397 4.77201 10.3407C4.77201 13.4074 7.27397 15.9093 10.3407 15.9093C13.4074 15.9093 15.9093 13.4074 15.9093 10.3407C15.9093 7.27397 13.4074 4.77201 10.3407 4.77201ZM10.3407 6.36374C12.5476 6.36374 14.3176 8.13529 14.3176 10.3407C14.3176 12.5476 12.5476 14.3176 10.3407 14.3176C8.13529 14.3176 6.36374 12.5476 6.36374 10.3407C6.36374 8.13529 8.13529 6.36374 10.3407 6.36374Z" fill="#234092"/>
</g>
<defs>
<clipPath id="clip0_873_806">
<rect width="20.9595" height="20.9595" fill="white" transform="scale(1.00193)"/>
</clipPath>
</defs>
</svg>