<svg width="21" height="21" viewBox="0 0 21 21" fill="none" xmlns="http://www.w3.org/2000/svg">
<path d="M20.3241 4.40801C19.6013 4.72781 18.8242 4.94527 18.0088 5.04121C18.8402 4.54233 19.4798 3.75243 19.7804 2.81223C19.0033 3.27274 18.1399 3.60853 17.2221 3.79081C16.4865 3.00731 15.4376 2.51483 14.28 2.51483C12.0542 2.51483 10.2473 4.32167 10.2473 6.54744C10.2473 6.86404 10.2825 7.17105 10.3529 7.46526C7.00141 7.29896 4.03052 5.69359 2.04459 3.25355C1.69601 3.84837 1.49774 4.54233 1.49774 5.28105C1.49774 6.67856 2.20768 7.91297 3.29179 8.63571C2.62981 8.61332 2.00941 8.43424 1.46576 8.13043C1.46576 8.14962 1.46576 8.16561 1.46576 8.1816C1.46576 10.1355 2.85367 11.7665 4.69889 12.1343C4.35991 12.227 4.00493 12.2782 3.63717 12.2782C3.37813 12.2782 3.1223 12.2526 2.87925 12.2046C3.39093 13.8068 4.88117 14.9709 6.64324 15.006C5.26493 16.0869 3.52524 16.7297 1.63845 16.7297C1.31226 16.7297 0.99246 16.7105 0.675863 16.6722C2.46032 17.817 4.57737 18.4854 6.85431 18.4854C14.2704 18.4854 18.3254 12.3421 18.3254 7.01435C18.3254 6.84166 18.319 6.66577 18.3126 6.49308C19.0993 5.92384 19.7836 5.2139 20.3241 4.40801Z" fill="#234092"/>
</svg>