<svg width="40" height="40" viewBox="0 0 40 40" fill="none" xmlns="http://www.w3.org/2000/svg">
<path d="M38.4607 10.2281L38.4497 10.2171L34.7107 6.539C34.1263 5.95477 33.3343 5.62579 32.5079 5.62403C31.6816 5.62227 30.8882 5.94789 30.3013 6.52963L16.2388 20.3765L10.9372 15.2749C10.3497 14.6955 9.55686 14.3719 8.73166 14.3748C7.90646 14.3777 7.11591 14.7069 6.53254 15.2906L2.78254 19.0406C2.19765 19.6265 1.86914 20.4205 1.86914 21.2484C1.86914 22.0763 2.19765 22.8703 2.78254 23.4562L13.9732 34.7062C14.2634 34.9965 14.6079 35.2268 14.9871 35.3839C15.3664 35.5411 15.7728 35.6219 16.1833 35.6219C16.5938 35.6219 17.0003 35.5411 17.3795 35.3839C17.7587 35.2268 18.1033 34.9965 18.3935 34.7062L38.4607 14.6468C39.0465 14.0608 39.3756 13.2661 39.3756 12.4374C39.3756 11.6088 39.0465 10.8141 38.4607 10.2281ZM16.1888 31.614L5.88097 21.2499L8.75754 18.3749L14.0622 23.4749C14.6472 24.0532 15.4366 24.3775 16.2591 24.3775C17.0816 24.3775 17.871 24.0532 18.456 23.4749L32.4997 9.6265L35.3622 12.439L16.1888 31.614Z" fill="#234092"/>
</svg>
