<svg width="507" height="37" viewBox="0 0 507 37" fill="none" xmlns="http://www.w3.org/2000/svg">
<rect x="51.2344" y="4.78613" width="409.265" height="4" fill="#CBCFD6"/>
<circle cx="49.5" cy="6.78613" r="6" fill="#234092"/>
<path d="M4.208 30.8821C3.576 30.8821 2.964 30.7861 2.372 30.5941C1.788 30.3941 1.328 30.1381 0.992 29.8261L1.436 28.8901C1.756 29.1781 2.164 29.4141 2.66 29.5981C3.164 29.7741 3.68 29.8621 4.208 29.8621C4.904 29.8621 5.424 29.7461 5.768 29.5141C6.112 29.2741 6.284 28.9581 6.284 28.5661C6.284 28.2781 6.188 28.0461 5.996 27.8701C5.812 27.6861 5.58 27.5461 5.3 27.4501C5.028 27.3541 4.64 27.2461 4.136 27.1261C3.504 26.9741 2.992 26.8221 2.6 26.6701C2.216 26.5181 1.884 26.2861 1.604 25.9741C1.332 25.6541 1.196 25.2261 1.196 24.6901C1.196 24.2421 1.312 23.8381 1.544 23.4781C1.784 23.1181 2.144 22.8301 2.624 22.6141C3.104 22.3981 3.7 22.2901 4.412 22.2901C4.908 22.2901 5.396 22.3541 5.876 22.4821C6.356 22.6101 6.768 22.7941 7.112 23.0341L6.716 23.9941C6.364 23.7701 5.988 23.6021 5.588 23.4901C5.188 23.3701 4.796 23.3101 4.412 23.3101C3.732 23.3101 3.22 23.4341 2.876 23.6821C2.54 23.9301 2.372 24.2501 2.372 24.6421C2.372 24.9301 2.468 25.1661 2.66 25.3501C2.852 25.5261 3.088 25.6661 3.368 25.7701C3.656 25.8661 4.044 25.9701 4.532 26.0821C5.164 26.2341 5.672 26.3861 6.056 26.5381C6.44 26.6901 6.768 26.9221 7.04 27.2341C7.32 27.5461 7.46 27.9661 7.46 28.4941C7.46 28.9341 7.34 29.3381 7.1 29.7061C6.86 30.0661 6.496 30.3541 6.008 30.5701C5.52 30.7781 4.92 30.8821 4.208 30.8821ZM15.0931 27.6421C15.0931 27.7301 15.0851 27.8461 15.0691 27.9901H9.90913C9.98113 28.5501 10.2251 29.0021 10.6411 29.3461C11.0651 29.6821 11.5891 29.8501 12.2131 29.8501C12.9731 29.8501 13.5851 29.5941 14.0491 29.0821L14.6851 29.8261C14.3971 30.1621 14.0371 30.4181 13.6051 30.5941C13.1811 30.7701 12.7051 30.8581 12.1771 30.8581C11.5051 30.8581 10.9091 30.7221 10.3891 30.4501C9.86913 30.1701 9.46513 29.7821 9.17713 29.2861C8.89713 28.7901 8.75713 28.2301 8.75713 27.6061C8.75713 26.9901 8.89313 26.4341 9.16513 25.9381C9.44513 25.4421 9.82513 25.0581 10.3051 24.7861C10.7931 24.5061 11.3411 24.3661 11.9491 24.3661C12.5571 24.3661 13.0971 24.5061 13.5691 24.7861C14.0491 25.0581 14.4211 25.4421 14.6851 25.9381C14.9571 26.4341 15.0931 27.0021 15.0931 27.6421ZM11.9491 25.3381C11.3971 25.3381 10.9331 25.5061 10.5571 25.8421C10.1891 26.1781 9.97313 26.6181 9.90913 27.1621H13.9891C13.9251 26.6261 13.7051 26.1901 13.3291 25.8541C12.9611 25.5101 12.5011 25.3381 11.9491 25.3381ZM16.9928 21.8821H18.1448V30.7861H16.9928V21.8821ZM26.3923 27.6421C26.3923 27.7301 26.3843 27.8461 26.3683 27.9901H21.2083C21.2803 28.5501 21.5243 29.0021 21.9403 29.3461C22.3643 29.6821 22.8883 29.8501 23.5123 29.8501C24.2723 29.8501 24.8843 29.5941 25.3483 29.0821L25.9843 29.8261C25.6963 30.1621 25.3363 30.4181 24.9043 30.5941C24.4803 30.7701 24.0043 30.8581 23.4763 30.8581C22.8043 30.8581 22.2083 30.7221 21.6883 30.4501C21.1683 30.1701 20.7643 29.7821 20.4763 29.2861C20.1963 28.7901 20.0563 28.2301 20.0563 27.6061C20.0563 26.9901 20.1923 26.4341 20.4643 25.9381C20.7443 25.4421 21.1243 25.0581 21.6043 24.7861C22.0923 24.5061 22.6403 24.3661 23.2483 24.3661C23.8563 24.3661 24.3963 24.5061 24.8683 24.7861C25.3483 25.0581 25.7203 25.4421 25.9843 25.9381C26.2563 26.4341 26.3923 27.0021 26.3923 27.6421ZM23.2483 25.3381C22.6963 25.3381 22.2323 25.5061 21.8563 25.8421C21.4883 26.1781 21.2723 26.6181 21.2083 27.1621H25.2883C25.2243 26.6261 25.0043 26.1901 24.6283 25.8541C24.2603 25.5101 23.8003 25.3381 23.2483 25.3381ZM31.064 30.8581C30.416 30.8581 29.836 30.7181 29.324 30.4381C28.82 30.1581 28.424 29.7741 28.136 29.2861C27.848 28.7901 27.704 28.2301 27.704 27.6061C27.704 26.9821 27.848 26.4261 28.136 25.9381C28.424 25.4421 28.82 25.0581 29.324 24.7861C29.836 24.5061 30.416 24.3661 31.064 24.3661C31.64 24.3661 32.152 24.4821 32.6 24.7141C33.056 24.9461 33.408 25.2821 33.656 25.7221L32.78 26.2861C32.58 25.9821 32.332 25.7541 32.036 25.6021C31.74 25.4501 31.412 25.3741 31.052 25.3741C30.636 25.3741 30.26 25.4661 29.924 25.6501C29.596 25.8341 29.336 26.0981 29.144 26.4421C28.96 26.7781 28.868 27.1661 28.868 27.6061C28.868 28.0541 28.96 28.4501 29.144 28.7941C29.336 29.1301 29.596 29.3901 29.924 29.5741C30.26 29.7581 30.636 29.8501 31.052 29.8501C31.412 29.8501 31.74 29.7741 32.036 29.6221C32.332 29.4701 32.58 29.2421 32.78 28.9381L33.656 29.4901C33.408 29.9301 33.056 30.2701 32.6 30.5101C32.152 30.7421 31.64 30.8581 31.064 30.8581ZM39.1055 30.4141C38.9375 30.5581 38.7295 30.6701 38.4815 30.7501C38.2335 30.8221 37.9775 30.8581 37.7135 30.8581C37.0735 30.8581 36.5775 30.6861 36.2255 30.3421C35.8735 29.9981 35.6975 29.5061 35.6975 28.8661V25.3741H34.6175V24.4261H35.6975V23.0341H36.8495V24.4261H38.6735V25.3741H36.8495V28.8181C36.8495 29.1621 36.9335 29.4261 37.1015 29.6101C37.2775 29.7941 37.5255 29.8861 37.8455 29.8861C38.1975 29.8861 38.4975 29.7861 38.7455 29.5861L39.1055 30.4141ZM47.7649 22.3861C48.8529 22.3861 49.7089 22.6461 50.3329 23.1661C50.9569 23.6861 51.2689 24.4021 51.2689 25.3141C51.2689 26.2261 50.9569 26.9421 50.3329 27.4621C49.7089 27.9821 48.8529 28.2421 47.7649 28.2421H45.6889V30.7861H44.4889V22.3861H47.7649ZM47.7289 27.1981C48.4889 27.1981 49.0689 27.0381 49.4689 26.7181C49.8689 26.3901 50.0689 25.9221 50.0689 25.3141C50.0689 24.7061 49.8689 24.2421 49.4689 23.9221C49.0689 23.5941 48.4889 23.4301 47.7289 23.4301H45.6889V27.1981H47.7289ZM55.4213 24.3661C56.3013 24.3661 56.9733 24.5821 57.4373 25.0141C57.9093 25.4461 58.1453 26.0901 58.1453 26.9461V30.7861H57.0533V29.9461C56.8613 30.2421 56.5853 30.4701 56.2253 30.6301C55.8733 30.7821 55.4533 30.8581 54.9653 30.8581C54.2533 30.8581 53.6813 30.6861 53.2493 30.3421C52.8253 29.9981 52.6133 29.5461 52.6133 28.9861C52.6133 28.4261 52.8173 27.9781 53.2253 27.6421C53.6333 27.2981 54.2813 27.1261 55.1693 27.1261H56.9933V26.8981C56.9933 26.4021 56.8493 26.0221 56.5613 25.7581C56.2733 25.4941 55.8493 25.3621 55.2893 25.3621C54.9133 25.3621 54.5453 25.4261 54.1853 25.5541C53.8253 25.6741 53.5213 25.8381 53.2733 26.0461L52.7933 25.1821C53.1213 24.9181 53.5133 24.7181 53.9693 24.5821C54.4253 24.4381 54.9093 24.3661 55.4213 24.3661ZM55.1573 29.9701C55.5973 29.9701 55.9773 29.8741 56.2973 29.6821C56.6173 29.4821 56.8493 29.2021 56.9933 28.8421V27.9541H55.2173C54.2413 27.9541 53.7533 28.2821 53.7533 28.9381C53.7533 29.2581 53.8773 29.5101 54.1253 29.6941C54.3733 29.8781 54.7173 29.9701 55.1573 29.9701ZM63.3843 30.8581C62.7363 30.8581 62.1563 30.7181 61.6443 30.4381C61.1403 30.1581 60.7443 29.7741 60.4563 29.2861C60.1683 28.7901 60.0243 28.2301 60.0243 27.6061C60.0243 26.9821 60.1683 26.4261 60.4563 25.9381C60.7443 25.4421 61.1403 25.0581 61.6443 24.7861C62.1563 24.5061 62.7363 24.3661 63.3843 24.3661C63.9603 24.3661 64.4723 24.4821 64.9203 24.7141C65.3763 24.9461 65.7283 25.2821 65.9763 25.7221L65.1003 26.2861C64.9003 25.9821 64.6523 25.7541 64.3563 25.6021C64.0603 25.4501 63.7323 25.3741 63.3723 25.3741C62.9563 25.3741 62.5803 25.4661 62.2443 25.6501C61.9163 25.8341 61.6563 26.0981 61.4643 26.4421C61.2803 26.7781 61.1883 27.1661 61.1883 27.6061C61.1883 28.0541 61.2803 28.4501 61.4643 28.7941C61.6563 29.1301 61.9163 29.3901 62.2443 29.5741C62.5803 29.7581 62.9563 29.8501 63.3723 29.8501C63.7323 29.8501 64.0603 29.7741 64.3563 29.6221C64.6523 29.4701 64.9003 29.2421 65.1003 28.9381L65.9763 29.4901C65.7283 29.9301 65.3763 30.2701 64.9203 30.5101C64.4723 30.7421 63.9603 30.8581 63.3843 30.8581ZM70.1578 27.8221L68.8378 29.0461V30.7861H67.6858V21.8821H68.8378V27.5941L72.3058 24.4261H73.6978L71.0218 27.0541L73.9618 30.7861H72.5458L70.1578 27.8221ZM77.5791 24.3661C78.4591 24.3661 79.1311 24.5821 79.5951 25.0141C80.0671 25.4461 80.3031 26.0901 80.3031 26.9461V30.7861H79.2111V29.9461C79.0191 30.2421 78.7431 30.4701 78.3831 30.6301C78.0311 30.7821 77.6111 30.8581 77.1231 30.8581C76.4111 30.8581 75.8391 30.6861 75.4071 30.3421C74.9831 29.9981 74.7711 29.5461 74.7711 28.9861C74.7711 28.4261 74.9751 27.9781 75.3831 27.6421C75.7911 27.2981 76.4391 27.1261 77.3271 27.1261H79.1511V26.8981C79.1511 26.4021 79.0071 26.0221 78.7191 25.7581C78.4311 25.4941 78.0071 25.3621 77.4471 25.3621C77.0711 25.3621 76.7031 25.4261 76.3431 25.5541C75.9831 25.6741 75.6791 25.8381 75.4311 26.0461L74.9511 25.1821C75.2791 24.9181 75.6711 24.7181 76.1271 24.5821C76.5831 24.4381 77.0671 24.3661 77.5791 24.3661ZM77.3151 29.9701C77.7551 29.9701 78.1351 29.8741 78.4551 29.6821C78.7751 29.4821 79.0071 29.2021 79.1511 28.8421V27.9541H77.3751C76.3991 27.9541 75.9111 28.2821 75.9111 28.9381C75.9111 29.2581 76.0351 29.5101 76.2831 29.6941C76.5311 29.8781 76.8751 29.9701 77.3151 29.9701ZM88.8541 24.4261V29.9221C88.8541 31.0341 88.5781 31.8541 88.0261 32.3821C87.4741 32.9181 86.6501 33.1861 85.5541 33.1861C84.9541 33.1861 84.3821 33.1021 83.8381 32.9341C83.2941 32.7741 82.8541 32.5421 82.5181 32.2381L83.0701 31.3501C83.3661 31.6061 83.7301 31.8061 84.1621 31.9501C84.6021 32.1021 85.0541 32.1781 85.5181 32.1781C86.2621 32.1781 86.8101 32.0021 87.1621 31.6501C87.5221 31.2981 87.7021 30.7621 87.7021 30.0421V29.5381C87.4301 29.8661 87.0941 30.1141 86.6941 30.2821C86.3021 30.4421 85.8741 30.5221 85.4101 30.5221C84.8021 30.5221 84.2501 30.3941 83.7541 30.1381C83.2661 29.8741 82.8821 29.5101 82.6021 29.0461C82.3221 28.5741 82.1821 28.0381 82.1821 27.4381C82.1821 26.8381 82.3221 26.3061 82.6021 25.8421C82.8821 25.3701 83.2661 25.0061 83.7541 24.7501C84.2501 24.4941 84.8021 24.3661 85.4101 24.3661C85.8901 24.3661 86.3341 24.4541 86.7421 24.6301C87.1581 24.8061 87.4981 25.0661 87.7621 25.4101V24.4261H88.8541ZM85.5421 29.5141C85.9581 29.5141 86.3301 29.4261 86.6581 29.2501C86.9941 29.0741 87.2541 28.8301 87.4381 28.5181C87.6301 28.1981 87.7261 27.8381 87.7261 27.4381C87.7261 26.8221 87.5221 26.3261 87.1141 25.9501C86.7061 25.5661 86.1821 25.3741 85.5421 25.3741C84.8941 25.3741 84.3661 25.5661 83.9581 25.9501C83.5501 26.3261 83.3461 26.8221 83.3461 27.4381C83.3461 27.8381 83.4381 28.1981 83.6221 28.5181C83.8141 28.8301 84.0741 29.0741 84.4021 29.2501C84.7381 29.4261 85.1181 29.5141 85.5421 29.5141ZM97.1033 27.6421C97.1033 27.7301 97.0953 27.8461 97.0793 27.9901H91.9193C91.9913 28.5501 92.2353 29.0021 92.6513 29.3461C93.0753 29.6821 93.5993 29.8501 94.2233 29.8501C94.9833 29.8501 95.5953 29.5941 96.0593 29.0821L96.6953 29.8261C96.4073 30.1621 96.0473 30.4181 95.6153 30.5941C95.1913 30.7701 94.7153 30.8581 94.1873 30.8581C93.5153 30.8581 92.9193 30.7221 92.3993 30.4501C91.8793 30.1701 91.4753 29.7821 91.1873 29.2861C90.9073 28.7901 90.7673 28.2301 90.7673 27.6061C90.7673 26.9901 90.9033 26.4341 91.1753 25.9381C91.4553 25.4421 91.8353 25.0581 92.3153 24.7861C92.8033 24.5061 93.3513 24.3661 93.9593 24.3661C94.5673 24.3661 95.1073 24.5061 95.5793 24.7861C96.0593 25.0581 96.4313 25.4421 96.6953 25.9381C96.9673 26.4341 97.1033 27.0021 97.1033 27.6421ZM93.9593 25.3381C93.4073 25.3381 92.9433 25.5061 92.5673 25.8421C92.1993 26.1781 91.9833 26.6181 91.9193 27.1621H95.9993C95.9353 26.6261 95.7153 26.1901 95.3393 25.8541C94.9713 25.5101 94.5113 25.3381 93.9593 25.3381Z" fill="#234092"/>
<circle cx="184" cy="6.78613" r="6" fill="#234092"/>
<path d="M154.96 23.4301V26.3581H159.172V27.3901H154.96V30.7861H153.76V22.3861H159.688V23.4301H154.96ZM161.392 24.4261H162.544V30.7861H161.392V24.4261ZM161.968 23.2021C161.744 23.2021 161.556 23.1301 161.404 22.9861C161.26 22.8421 161.188 22.6661 161.188 22.4581C161.188 22.2501 161.26 22.0741 161.404 21.9301C161.556 21.7781 161.744 21.7021 161.968 21.7021C162.192 21.7021 162.376 21.7741 162.52 21.9181C162.672 22.0541 162.748 22.2261 162.748 22.4341C162.748 22.6501 162.672 22.8341 162.52 22.9861C162.376 23.1301 162.192 23.2021 161.968 23.2021ZM165.044 21.8821H166.196V30.7861H165.044V21.8821ZM168.695 21.8821H169.847V30.7861H168.695V21.8821ZM177.237 23.4301V26.3581H181.449V27.3901H177.237V30.7861H176.037V22.3861H181.965V23.4301H177.237ZM186.311 30.8581C185.679 30.8581 185.111 30.7181 184.607 30.4381C184.103 30.1581 183.707 29.7741 183.419 29.2861C183.139 28.7901 182.999 28.2301 182.999 27.6061C182.999 26.9821 183.139 26.4261 183.419 25.9381C183.707 25.4421 184.103 25.0581 184.607 24.7861C185.111 24.5061 185.679 24.3661 186.311 24.3661C186.943 24.3661 187.507 24.5061 188.003 24.7861C188.507 25.0581 188.899 25.4421 189.179 25.9381C189.467 26.4261 189.611 26.9821 189.611 27.6061C189.611 28.2301 189.467 28.7901 189.179 29.2861C188.899 29.7741 188.507 30.1581 188.003 30.4381C187.507 30.7181 186.943 30.8581 186.311 30.8581ZM186.311 29.8501C186.719 29.8501 187.083 29.7581 187.403 29.5741C187.731 29.3821 187.987 29.1181 188.171 28.7821C188.355 28.4381 188.447 28.0461 188.447 27.6061C188.447 27.1661 188.355 26.7781 188.171 26.4421C187.987 26.0981 187.731 25.8341 187.403 25.6501C187.083 25.4661 186.719 25.3741 186.311 25.3741C185.903 25.3741 185.535 25.4661 185.207 25.6501C184.887 25.8341 184.631 26.0981 184.439 26.4421C184.255 26.7781 184.163 27.1661 184.163 27.6061C184.163 28.0461 184.255 28.4381 184.439 28.7821C184.631 29.1181 184.887 29.3821 185.207 29.5741C185.535 29.7581 185.903 29.8501 186.311 29.8501ZM192.608 25.4941C192.808 25.1261 193.104 24.8461 193.496 24.6541C193.888 24.4621 194.364 24.3661 194.924 24.3661V25.4821C194.86 25.4741 194.772 25.4701 194.66 25.4701C194.036 25.4701 193.544 25.6581 193.184 26.0341C192.832 26.4021 192.656 26.9301 192.656 27.6181V30.7861H191.504V24.4261H192.608V25.4941ZM204.6 24.3661C205.4 24.3661 206.032 24.5981 206.496 25.0621C206.968 25.5261 207.204 26.2141 207.204 27.1261V30.7861H206.052V27.2581C206.052 26.6421 205.908 26.1781 205.62 25.8661C205.34 25.5541 204.936 25.3981 204.408 25.3981C203.824 25.3981 203.36 25.5821 203.016 25.9501C202.672 26.3101 202.5 26.8301 202.5 27.5101V30.7861H201.348V27.2581C201.348 26.6421 201.204 26.1781 200.916 25.8661C200.636 25.5541 200.232 25.3981 199.704 25.3981C199.12 25.3981 198.656 25.5821 198.312 25.9501C197.968 26.3101 197.796 26.8301 197.796 27.5101V30.7861H196.644V24.4261H197.748V25.3741C197.98 25.0461 198.284 24.7981 198.66 24.6301C199.036 24.4541 199.464 24.3661 199.944 24.3661C200.44 24.3661 200.88 24.4661 201.264 24.6661C201.648 24.8661 201.944 25.1581 202.152 25.5421C202.392 25.1741 202.724 24.8861 203.148 24.6781C203.58 24.4701 204.064 24.3661 204.6 24.3661ZM211.448 30.8581C210.928 30.8581 210.428 30.7901 209.948 30.6541C209.468 30.5101 209.092 30.3301 208.82 30.1141L209.3 29.2021C209.58 29.4021 209.92 29.5621 210.32 29.6821C210.72 29.8021 211.124 29.8621 211.532 29.8621C212.54 29.8621 213.044 29.5741 213.044 28.9981C213.044 28.8061 212.976 28.6541 212.84 28.5421C212.704 28.4301 212.532 28.3501 212.324 28.3021C212.124 28.2461 211.836 28.1861 211.46 28.1221C210.948 28.0421 210.528 27.9501 210.2 27.8461C209.88 27.7421 209.604 27.5661 209.372 27.3181C209.14 27.0701 209.024 26.7221 209.024 26.2741C209.024 25.6981 209.264 25.2381 209.744 24.8941C210.224 24.5421 210.868 24.3661 211.676 24.3661C212.1 24.3661 212.524 24.4181 212.948 24.5221C213.372 24.6261 213.72 24.7661 213.992 24.9421L213.5 25.8541C212.98 25.5181 212.368 25.3501 211.664 25.3501C211.176 25.3501 210.804 25.4301 210.548 25.5901C210.292 25.7501 210.164 25.9621 210.164 26.2261C210.164 26.4341 210.236 26.5981 210.38 26.7181C210.524 26.8381 210.7 26.9261 210.908 26.9821C211.124 27.0381 211.424 27.1021 211.808 27.1741C212.32 27.2621 212.732 27.3581 213.044 27.4621C213.364 27.5581 213.636 27.7261 213.86 27.9661C214.084 28.2061 214.196 28.5421 214.196 28.9741C214.196 29.5501 213.948 30.0101 213.452 30.3541C212.964 30.6901 212.296 30.8581 211.448 30.8581Z" fill="#234092"/>
<circle cx="325" cy="6.78613" r="6" fill="#234092"/>
<path d="M274.036 22.3861C275.124 22.3861 275.98 22.6461 276.604 23.1661C277.228 23.6861 277.54 24.4021 277.54 25.3141C277.54 26.2261 277.228 26.9421 276.604 27.4621C275.98 27.9821 275.124 28.2421 274.036 28.2421H271.96V30.7861H270.76V22.3861H274.036ZM274 27.1981C274.76 27.1981 275.34 27.0381 275.74 26.7181C276.14 26.3901 276.34 25.9221 276.34 25.3141C276.34 24.7061 276.14 24.2421 275.74 23.9221C275.34 23.5941 274.76 23.4301 274 23.4301H271.96V27.1981H274ZM281.692 24.3661C282.572 24.3661 283.244 24.5821 283.708 25.0141C284.18 25.4461 284.416 26.0901 284.416 26.9461V30.7861H283.324V29.9461C283.132 30.2421 282.856 30.4701 282.496 30.6301C282.144 30.7821 281.724 30.8581 281.236 30.8581C280.524 30.8581 279.952 30.6861 279.52 30.3421C279.096 29.9981 278.884 29.5461 278.884 28.9861C278.884 28.4261 279.088 27.9781 279.496 27.6421C279.904 27.2981 280.552 27.1261 281.44 27.1261H283.264V26.8981C283.264 26.4021 283.12 26.0221 282.832 25.7581C282.544 25.4941 282.12 25.3621 281.56 25.3621C281.184 25.3621 280.816 25.4261 280.456 25.5541C280.096 25.6741 279.792 25.8381 279.544 26.0461L279.064 25.1821C279.392 24.9181 279.784 24.7181 280.24 24.5821C280.696 24.4381 281.18 24.3661 281.692 24.3661ZM281.428 29.9701C281.868 29.9701 282.248 29.8741 282.568 29.6821C282.888 29.4821 283.12 29.2021 283.264 28.8421V27.9541H281.488C280.512 27.9541 280.024 28.2821 280.024 28.9381C280.024 29.2581 280.148 29.5101 280.396 29.6941C280.644 29.8781 280.988 29.9701 281.428 29.9701ZM292.359 24.4261L289.275 31.4221C289.003 32.0701 288.683 32.5261 288.315 32.7901C287.955 33.0541 287.519 33.1861 287.007 33.1861C286.695 33.1861 286.391 33.1341 286.095 33.0301C285.807 32.9341 285.567 32.7901 285.375 32.5981L285.867 31.7341C286.195 32.0461 286.575 32.2021 287.007 32.2021C287.287 32.2021 287.519 32.1261 287.703 31.9741C287.895 31.8301 288.067 31.5781 288.219 31.2181L288.423 30.7741L285.615 24.4261H286.815L289.035 29.5141L291.231 24.4261H292.359ZM301.69 24.3661C302.49 24.3661 303.122 24.5981 303.586 25.0621C304.058 25.5261 304.294 26.2141 304.294 27.1261V30.7861H303.142V27.2581C303.142 26.6421 302.998 26.1781 302.71 25.8661C302.43 25.5541 302.026 25.3981 301.498 25.3981C300.914 25.3981 300.45 25.5821 300.106 25.9501C299.762 26.3101 299.59 26.8301 299.59 27.5101V30.7861H298.438V27.2581C298.438 26.6421 298.294 26.1781 298.006 25.8661C297.726 25.5541 297.322 25.3981 296.794 25.3981C296.21 25.3981 295.746 25.5821 295.402 25.9501C295.058 26.3101 294.886 26.8301 294.886 27.5101V30.7861H293.734V24.4261H294.838V25.3741C295.07 25.0461 295.374 24.7981 295.75 24.6301C296.126 24.4541 296.554 24.3661 297.034 24.3661C297.53 24.3661 297.97 24.4661 298.354 24.6661C298.738 24.8661 299.034 25.1581 299.242 25.5421C299.482 25.1741 299.814 24.8861 300.238 24.6781C300.67 24.4701 301.154 24.3661 301.69 24.3661ZM312.497 27.6421C312.497 27.7301 312.489 27.8461 312.473 27.9901H307.313C307.385 28.5501 307.629 29.0021 308.045 29.3461C308.469 29.6821 308.993 29.8501 309.617 29.8501C310.377 29.8501 310.989 29.5941 311.453 29.0821L312.089 29.8261C311.801 30.1621 311.441 30.4181 311.009 30.5941C310.585 30.7701 310.109 30.8581 309.581 30.8581C308.909 30.8581 308.313 30.7221 307.793 30.4501C307.273 30.1701 306.869 29.7821 306.581 29.2861C306.301 28.7901 306.161 28.2301 306.161 27.6061C306.161 26.9901 306.297 26.4341 306.569 25.9381C306.849 25.4421 307.229 25.0581 307.709 24.7861C308.197 24.5061 308.745 24.3661 309.353 24.3661C309.961 24.3661 310.501 24.5061 310.973 24.7861C311.453 25.0581 311.825 25.4421 312.089 25.9381C312.361 26.4341 312.497 27.0021 312.497 27.6421ZM309.353 25.3381C308.801 25.3381 308.337 25.5061 307.961 25.8421C307.593 26.1781 307.377 26.6181 307.313 27.1621H311.393C311.329 26.6261 311.109 26.1901 310.733 25.8541C310.365 25.5101 309.905 25.3381 309.353 25.3381ZM317.793 24.3661C318.601 24.3661 319.241 24.6021 319.713 25.0741C320.193 25.5381 320.433 26.2221 320.433 27.1261V30.7861H319.281V27.2581C319.281 26.6421 319.133 26.1781 318.837 25.8661C318.541 25.5541 318.117 25.3981 317.565 25.3981C316.941 25.3981 316.449 25.5821 316.089 25.9501C315.729 26.3101 315.549 26.8301 315.549 27.5101V30.7861H314.397V24.4261H315.501V25.3861C315.733 25.0581 316.045 24.8061 316.437 24.6301C316.837 24.4541 317.289 24.3661 317.793 24.3661ZM326.441 30.4141C326.273 30.5581 326.065 30.6701 325.817 30.7501C325.569 30.8221 325.313 30.8581 325.049 30.8581C324.409 30.8581 323.913 30.6861 323.561 30.3421C323.209 29.9981 323.033 29.5061 323.033 28.8661V25.3741H321.953V24.4261H323.033V23.0341H324.185V24.4261H326.009V25.3741H324.185V28.8181C324.185 29.1621 324.269 29.4261 324.437 29.6101C324.613 29.7941 324.861 29.8861 325.181 29.8861C325.533 29.8861 325.833 29.7861 326.081 29.5861L326.441 30.4141ZM339.612 30.7861L339.6 24.6661L336.564 29.7661H336.012L332.976 24.7021V30.7861H331.824V22.3861H332.808L336.312 28.2901L339.768 22.3861H340.752L340.764 30.7861H339.612ZM349.165 27.6421C349.165 27.7301 349.157 27.8461 349.141 27.9901H343.981C344.053 28.5501 344.297 29.0021 344.713 29.3461C345.137 29.6821 345.661 29.8501 346.285 29.8501C347.045 29.8501 347.657 29.5941 348.121 29.0821L348.757 29.8261C348.469 30.1621 348.109 30.4181 347.677 30.5941C347.253 30.7701 346.777 30.8581 346.249 30.8581C345.577 30.8581 344.981 30.7221 344.461 30.4501C343.941 30.1701 343.537 29.7821 343.249 29.2861C342.969 28.7901 342.829 28.2301 342.829 27.6061C342.829 26.9901 342.965 26.4341 343.237 25.9381C343.517 25.4421 343.897 25.0581 344.377 24.7861C344.865 24.5061 345.413 24.3661 346.021 24.3661C346.629 24.3661 347.169 24.5061 347.641 24.7861C348.121 25.0581 348.493 25.4421 348.757 25.9381C349.029 26.4341 349.165 27.0021 349.165 27.6421ZM346.021 25.3381C345.469 25.3381 345.005 25.5061 344.629 25.8421C344.261 26.1781 344.045 26.6181 343.981 27.1621H348.061C347.997 26.6261 347.777 26.1901 347.401 25.8541C347.033 25.5101 346.573 25.3381 346.021 25.3381ZM354.641 30.4141C354.473 30.5581 354.265 30.6701 354.017 30.7501C353.769 30.8221 353.513 30.8581 353.249 30.8581C352.609 30.8581 352.113 30.6861 351.761 30.3421C351.409 29.9981 351.233 29.5061 351.233 28.8661V25.3741H350.153V24.4261H351.233V23.0341H352.385V24.4261H354.209V25.3741H352.385V28.8181C352.385 29.1621 352.469 29.4261 352.637 29.6101C352.813 29.7941 353.061 29.8861 353.381 29.8861C353.733 29.8861 354.033 29.7861 354.281 29.5861L354.641 30.4141ZM359.729 24.3661C360.537 24.3661 361.177 24.6021 361.649 25.0741C362.129 25.5381 362.369 26.2221 362.369 27.1261V30.7861H361.217V27.2581C361.217 26.6421 361.069 26.1781 360.773 25.8661C360.477 25.5541 360.053 25.3981 359.501 25.3981C358.877 25.3981 358.385 25.5821 358.025 25.9501C357.665 26.3101 357.485 26.8301 357.485 27.5101V30.7861H356.333V21.8821H357.485V25.3261C357.725 25.0221 358.037 24.7861 358.421 24.6181C358.813 24.4501 359.249 24.3661 359.729 24.3661ZM367.561 30.8581C366.929 30.8581 366.361 30.7181 365.857 30.4381C365.353 30.1581 364.957 29.7741 364.669 29.2861C364.389 28.7901 364.249 28.2301 364.249 27.6061C364.249 26.9821 364.389 26.4261 364.669 25.9381C364.957 25.4421 365.353 25.0581 365.857 24.7861C366.361 24.5061 366.929 24.3661 367.561 24.3661C368.193 24.3661 368.757 24.5061 369.253 24.7861C369.757 25.0581 370.149 25.4421 370.429 25.9381C370.717 26.4261 370.861 26.9821 370.861 27.6061C370.861 28.2301 370.717 28.7901 370.429 29.2861C370.149 29.7741 369.757 30.1581 369.253 30.4381C368.757 30.7181 368.193 30.8581 367.561 30.8581ZM367.561 29.8501C367.969 29.8501 368.333 29.7581 368.653 29.5741C368.981 29.3821 369.237 29.1181 369.421 28.7821C369.605 28.4381 369.697 28.0461 369.697 27.6061C369.697 27.1661 369.605 26.7781 369.421 26.4421C369.237 26.0981 368.981 25.8341 368.653 25.6501C368.333 25.4661 367.969 25.3741 367.561 25.3741C367.153 25.3741 366.785 25.4661 366.457 25.6501C366.137 25.8341 365.881 26.0981 365.689 26.4421C365.505 26.7781 365.413 27.1661 365.413 27.6061C365.413 28.0461 365.505 28.4381 365.689 28.7821C365.881 29.1181 366.137 29.3821 366.457 29.5741C366.785 29.7581 367.153 29.8501 367.561 29.8501ZM378.754 21.8821V30.7861H377.65V29.7781C377.394 30.1301 377.07 30.3981 376.678 30.5821C376.286 30.7661 375.854 30.8581 375.382 30.8581C374.766 30.8581 374.214 30.7221 373.726 30.4501C373.238 30.1781 372.854 29.7981 372.574 29.3101C372.302 28.8141 372.166 28.2461 372.166 27.6061C372.166 26.9661 372.302 26.4021 372.574 25.9141C372.854 25.4261 373.238 25.0461 373.726 24.7741C374.214 24.5021 374.766 24.3661 375.382 24.3661C375.838 24.3661 376.258 24.4541 376.642 24.6301C377.026 24.7981 377.346 25.0501 377.602 25.3861V21.8821H378.754ZM375.478 29.8501C375.878 29.8501 376.242 29.7581 376.57 29.5741C376.898 29.3821 377.154 29.1181 377.338 28.7821C377.522 28.4381 377.614 28.0461 377.614 27.6061C377.614 27.1661 377.522 26.7781 377.338 26.4421C377.154 26.0981 376.898 25.8341 376.57 25.6501C376.242 25.4661 375.878 25.3741 375.478 25.3741C375.07 25.3741 374.702 25.4661 374.374 25.6501C374.054 25.8341 373.798 26.0981 373.606 26.4421C373.422 26.7781 373.33 27.1661 373.33 27.6061C373.33 28.0461 373.422 28.4381 373.606 28.7821C373.798 29.1181 374.054 29.3821 374.374 29.5741C374.702 29.7581 375.07 29.8501 375.478 29.8501Z" fill="#234092"/>
<circle cx="464" cy="6.78613" r="6" fill="#CBCFD6"/>
<path d="M426.516 30.8821C423.972 30.8821 422.076 29.0701 422.076 26.5861C422.076 24.1021 423.972 22.2901 426.528 22.2901C427.824 22.2901 428.952 22.7341 429.72 23.5981L428.94 24.3541C428.292 23.6701 427.5 23.3581 426.576 23.3581C424.68 23.3581 423.276 24.7261 423.276 26.5861C423.276 28.4461 424.68 29.8141 426.576 29.8141C427.5 29.8141 428.292 29.4901 428.94 28.8061L429.72 29.5621C428.952 30.4261 427.824 30.8821 426.516 30.8821ZM434.018 30.8581C432.11 30.8581 430.706 29.5021 430.706 27.6061C430.706 25.7101 432.11 24.3661 434.018 24.3661C435.926 24.3661 437.318 25.7101 437.318 27.6061C437.318 29.5021 435.926 30.8581 434.018 30.8581ZM434.018 29.8501C435.242 29.8501 436.154 28.9621 436.154 27.6061C436.154 26.2501 435.242 25.3741 434.018 25.3741C432.794 25.3741 431.87 26.2501 431.87 27.6061C431.87 28.9621 432.794 29.8501 434.018 29.8501ZM442.608 24.3661C444.156 24.3661 445.248 25.2541 445.248 27.1261V30.7861H444.096V27.2581C444.096 26.0101 443.472 25.3981 442.38 25.3981C441.156 25.3981 440.364 26.1301 440.364 27.5101V30.7861H439.212V24.4261H440.316V25.3861C440.784 24.7381 441.6 24.3661 442.608 24.3661ZM450.007 22.7581C449.323 22.7581 448.975 23.1421 448.975 23.8741V24.4261H450.823V25.3741H448.999V30.7861H447.847V25.3741H446.767V24.4261H447.847V23.8621C447.847 22.6261 448.591 21.8101 449.947 21.8101C450.439 21.8101 450.919 21.9301 451.243 22.1821L450.895 23.0581C450.655 22.8781 450.343 22.7581 450.007 22.7581ZM453.747 23.2021C453.303 23.2021 452.967 22.8781 452.967 22.4581C452.967 22.0381 453.303 21.7021 453.747 21.7021C454.191 21.7021 454.527 22.0261 454.527 22.4341C454.527 22.8661 454.203 23.2021 453.747 23.2021ZM453.171 30.7861V24.4261H454.323V30.7861H453.171ZM457.926 25.4941C458.334 24.7501 459.126 24.3661 460.242 24.3661V25.4821C460.146 25.4701 460.062 25.4701 459.978 25.4701C458.742 25.4701 457.974 26.2261 457.974 27.6181V30.7861H456.822V24.4261H457.926V25.4941ZM469.918 24.3661C471.466 24.3661 472.522 25.2541 472.522 27.1261V30.7861H471.37V27.2581C471.37 26.0101 470.77 25.3981 469.726 25.3981C468.574 25.3981 467.818 26.1301 467.818 27.5101V30.7861H466.666V27.2581C466.666 26.0101 466.066 25.3981 465.022 25.3981C463.87 25.3981 463.114 26.1301 463.114 27.5101V30.7861H461.962V24.4261H463.066V25.3741C463.522 24.7261 464.302 24.3661 465.262 24.3661C466.234 24.3661 467.05 24.7501 467.47 25.5421C467.95 24.8221 468.838 24.3661 469.918 24.3661ZM477.258 24.3661C478.998 24.3661 479.982 25.2061 479.982 26.9461V30.7861H478.89V29.9461C478.506 30.5221 477.798 30.8581 476.802 30.8581C475.362 30.8581 474.45 30.0901 474.45 28.9861C474.45 27.9661 475.11 27.1261 477.006 27.1261H478.83V26.8981C478.83 25.9261 478.266 25.3621 477.126 25.3621C476.37 25.3621 475.602 25.6261 475.11 26.0461L474.63 25.1821C475.29 24.6541 476.238 24.3661 477.258 24.3661ZM476.994 29.9701C477.858 29.9701 478.542 29.5741 478.83 28.8421V27.9541H477.054C475.914 27.9541 475.59 28.3981 475.59 28.9381C475.59 29.5741 476.118 29.9701 476.994 29.9701ZM485.63 29.5861L485.99 30.4141C485.642 30.7141 485.114 30.8581 484.598 30.8581C483.314 30.8581 482.582 30.1501 482.582 28.8661V25.3741H481.502V24.4261H482.582V23.0341H483.734V24.4261H485.558V25.3741H483.734V28.8181C483.734 29.5021 484.094 29.8861 484.73 29.8861C485.066 29.8861 485.39 29.7781 485.63 29.5861ZM488.259 23.2021C487.815 23.2021 487.479 22.8781 487.479 22.4581C487.479 22.0381 487.815 21.7021 488.259 21.7021C488.703 21.7021 489.039 22.0261 489.039 22.4341C489.039 22.8661 488.715 23.2021 488.259 23.2021ZM487.683 30.7861V24.4261H488.835V30.7861H487.683ZM494.058 30.8581C492.15 30.8581 490.746 29.5021 490.746 27.6061C490.746 25.7101 492.15 24.3661 494.058 24.3661C495.966 24.3661 497.358 25.7101 497.358 27.6061C497.358 29.5021 495.966 30.8581 494.058 30.8581ZM494.058 29.8501C495.282 29.8501 496.194 28.9621 496.194 27.6061C496.194 26.2501 495.282 25.3741 494.058 25.3741C492.834 25.3741 491.91 26.2501 491.91 27.6061C491.91 28.9621 492.834 29.8501 494.058 29.8501ZM502.647 24.3661C504.195 24.3661 505.287 25.2541 505.287 27.1261V30.7861H504.135V27.2581C504.135 26.0101 503.511 25.3981 502.419 25.3981C501.195 25.3981 500.403 26.1301 500.403 27.5101V30.7861H499.251V24.4261H500.355V25.3861C500.823 24.7381 501.639 24.3661 502.647 24.3661Z" fill="#CBCFD6"/>
<rect x="54.0029" y="4.78613" width="269.124" height="4" fill="#234092"/>
</svg>
