<svg className="fill-white-A700 group-hover:fill-indigo-800" width="25" height="25" viewBox="0 0 25 25" xmlns="http://www.w3.org/2000/svg">
                  <path d="M18.9164 6.03125V15.7812C18.9164 15.9802 18.8374 16.1709 18.6968 16.3116C18.5561 16.4522 18.3653 16.5312 18.1664 16.5312C17.9675 16.5312 17.7768 16.4522 17.6361 16.3116C17.4954 16.1709 17.4164 15.9802 17.4164 15.7812V7.84156L6.69706 18.5619C6.55633 18.7026 6.36546 18.7817 6.16643 18.7817C5.96741 18.7817 5.77654 18.7026 5.63581 18.5619C5.49508 18.4211 5.41602 18.2303 5.41602 18.0312C5.41602 17.8322 5.49508 17.6414 5.63581 17.5006L16.3561 6.78125H8.41643C8.21752 6.78125 8.02675 6.70223 7.8861 6.56158C7.74545 6.42093 7.66643 6.23016 7.66643 6.03125C7.66643 5.83234 7.74545 5.64157 7.8861 5.50092C8.02675 5.36027 8.21752 5.28125 8.41643 5.28125H18.1664C18.3653 5.28125 18.5561 5.36027 18.6968 5.50092C18.8374 5.64157 18.9164 5.83234 18.9164 6.03125Z"/>
                  </svg>