<svg width="32" height="32" viewBox="0 0 32 32" fill="none" xmlns="http://www.w3.org/2000/svg">
<path d="M25.3333 21.3334L22.6666 15.198V4.00008C20.4583 4.06779 18.6198 5.19279 18.6666 6.66675V12.0001L18.2031 11.8855L14.7291 2.66675C12.6718 3.48446 11.4479 5.25008 11.9948 6.61987L13.4166 10.6876L13.3333 10.6667L4.64579 5.90633C3.69788 7.90633 4.00517 10.0313 5.33329 10.6667L12 14.6667H7.99996L3.13538 19.7709C4.64579 21.3907 7.7135 20.974 8.79163 19.9636L10.0625 18.6876L13.3333 18.6667C14.6979 18.6667 15.6614 20.0053 15.2291 21.297C14.9583 22.1147 14.1927 22.6667 13.3333 22.6667H10.0625L8.57288 21.4376C7.4635 20.4688 5.38538 21.0261 3.92704 22.6876L9.33329 26.6667C12.0833 28.8751 16.2395 29.2501 18.6666 29.3334C21.3333 29.4272 29.3333 29.3334 29.3333 29.3334V21.3334H25.3333Z" fill="#234092"/>
</svg>
