<svg width="30" height="30" viewBox="0 0 30 30" fill="none" xmlns="http://www.w3.org/2000/svg">
<path d="M26.971 15C28.8312 12.5765 29.3738 10.2637 28.4939 8.44887C27.5984 6.60552 25.3737 5.59028 22.2276 5.59028C21.7796 5.59028 21.3153 5.61618 20.8427 5.65567C19.4946 2.19169 17.3975 0 14.9992 0C12.601 0 10.5038 2.19105 9.15579 5.65567C8.68443 5.61553 8.22019 5.59028 7.77149 5.59028C4.62607 5.59028 2.40071 6.60552 1.5059 8.44887C0.625337 10.2637 1.16857 12.5765 3.02876 15C1.16857 17.4228 0.625337 19.7363 1.5059 21.5511C2.40071 23.3951 4.62607 24.4097 7.77085 24.4097C8.21954 24.4097 8.68443 24.3838 9.15579 24.3443C10.5038 27.809 12.601 29.9994 14.9992 29.9994C17.3975 29.9994 19.4946 27.8083 20.8427 24.3443C21.3147 24.3845 21.7789 24.4097 22.2276 24.4097C25.3724 24.4097 27.5978 23.3951 28.4932 21.5511C29.3744 19.7369 28.8312 17.4228 26.971 15ZM22.2276 7.53335C24.5553 7.53335 26.2018 8.17629 26.7463 9.29771C27.2501 10.3356 26.8512 11.8442 25.6605 13.5063C24.6492 12.4729 23.45 11.4784 22.102 10.5583C21.9453 9.50296 21.7329 8.50132 21.4727 7.56378C21.7278 7.54888 21.9829 7.53335 22.2276 7.53335ZM17.3923 19.9279C16.6011 20.3119 15.7995 20.6544 14.9992 20.9574C14.1996 20.6544 13.3974 20.3119 12.6068 19.9279C11.5864 19.4326 10.6223 18.8868 9.71391 18.3092C9.59283 17.2636 9.52032 16.1629 9.52032 14.9994C9.52032 13.8365 9.59283 12.7351 9.71391 11.6895C10.6223 11.1126 11.5864 10.5668 12.6068 10.0714C13.398 9.68749 14.1996 9.34497 14.9992 9.04196C15.7995 9.34497 16.6017 9.68749 17.3923 10.0714C18.4121 10.5668 19.3761 11.1119 20.2839 11.6895C20.4056 12.7351 20.4781 13.8371 20.4781 15C20.4781 16.1629 20.4056 17.2642 20.2839 18.3099C19.3774 18.8868 18.4127 19.4332 17.3923 19.9279ZM19.8676 20.8201C19.7607 21.3031 19.6436 21.7667 19.5134 22.209C18.9682 22.1157 18.4127 22.0011 17.8455 21.8574C17.9776 21.7946 18.1097 21.7395 18.2411 21.6767C18.798 21.4048 19.3373 21.1167 19.8676 20.8201ZM12.1536 21.8574C11.5864 22.0011 11.0309 22.1157 10.4851 22.209C10.3549 21.7667 10.2377 21.3031 10.1309 20.8195C10.6605 21.116 11.1999 21.4042 11.758 21.6748C11.8901 21.7395 12.0222 21.7946 12.1536 21.8574ZM7.63293 16.8382C6.87992 16.2451 6.18972 15.6293 5.58822 15C6.18972 14.37 6.87992 13.7556 7.63293 13.1618C7.59797 13.764 7.5779 14.3758 7.5779 15C7.5779 15.6242 7.59797 16.236 7.63293 16.8382ZM10.1315 9.17987C10.2384 8.69685 10.3556 8.23262 10.4857 7.79039C11.0309 7.88428 11.5864 7.99888 12.1536 8.14262C12.0222 8.20413 11.8901 8.25916 11.7586 8.32326C11.2005 8.5952 10.6612 8.88333 10.1315 9.17987ZM17.8455 8.14326C18.4127 7.99953 18.9682 7.88428 19.5134 7.79104C19.6429 8.23326 19.7607 8.69685 19.8676 9.17987C19.3379 8.88333 18.7986 8.59455 18.2411 8.32391C18.1103 8.26046 17.9776 8.20542 17.8455 8.14326ZM22.3662 13.1605C23.1185 13.7549 23.8094 14.3694 24.4109 14.9994C23.8094 15.6293 23.1185 16.2438 22.3662 16.8382C22.4011 16.236 22.4212 15.6242 22.4212 14.9994C22.4212 14.3752 22.4005 13.7633 22.3662 13.1605ZM14.9992 1.94242C16.357 1.94242 17.7911 3.42384 18.8536 5.9302C17.6053 6.162 16.311 6.51422 14.9999 6.97652C13.6887 6.51422 12.3944 6.16265 11.1461 5.9302C12.2073 3.42384 13.6421 1.94242 14.9992 1.94242ZM3.25343 9.29771C3.79731 8.17629 5.44448 7.53335 7.77149 7.53335C8.01559 7.53335 8.27134 7.54953 8.52645 7.56313C8.26616 8.50132 8.05444 9.50296 7.89775 10.5583C6.54971 11.4784 5.34995 12.4729 4.33989 13.5063C3.14789 11.8436 2.74905 10.3356 3.25343 9.29771ZM7.77085 22.4667C5.44448 22.4667 3.79731 21.8237 3.25343 20.7023C2.74905 19.6637 3.14789 18.1551 4.33989 16.4937C5.34995 17.5271 6.54971 18.5216 7.89775 19.4417C8.05444 20.497 8.26681 21.4993 8.52645 22.4369C8.27134 22.4518 8.01494 22.4667 7.77085 22.4667ZM14.9992 28.0576C13.6421 28.0576 12.2073 26.5768 11.1455 24.0704C12.3938 23.8386 13.6881 23.4864 14.9999 23.0235C16.311 23.4864 17.6053 23.838 18.8536 24.0704C17.7918 26.5768 16.357 28.0576 14.9992 28.0576ZM26.7463 20.7029C26.2024 21.8237 24.5559 22.4673 22.2283 22.4673C21.9842 22.4673 21.7284 22.4511 21.4727 22.4375C21.7323 21.4993 21.9447 20.4977 22.102 19.4423C23.4507 18.5223 24.6505 17.5271 25.6612 16.4944C26.8512 18.1558 27.2507 19.6644 26.7463 20.7029Z" fill="white"/>
<path d="M14.9993 18.0119C16.6629 18.0119 18.0114 16.6633 18.0114 14.9998C18.0114 13.3363 16.6629 11.9878 14.9993 11.9878C13.3358 11.9878 11.9873 13.3363 11.9873 14.9998C11.9873 16.6633 13.3358 18.0119 14.9993 18.0119Z" fill="white"/>
</svg>
