<svg width="63" height="63" viewBox="0 0 63 63" fill="none" xmlns="http://www.w3.org/2000/svg">
<path d="M20.0897 35.2471L11.728 36.7291C11.2844 36.8077 10.8278 36.7069 10.4586 36.4488C10.0894 36.1908 9.83781 35.7966 9.75921 35.3531C9.6806 34.9096 9.78141 34.453 10.0395 34.0837C10.2975 33.7145 10.6916 33.463 11.1352 33.3843L18.6023 32.061L20.6922 27.2835C20.8042 27.0271 20.9778 26.8023 21.1977 26.6291C21.4175 26.4559 21.6767 26.3398 21.9522 26.2909C22.2278 26.2421 22.5111 26.2621 22.7771 26.3492C23.043 26.4362 23.2833 26.5877 23.4767 26.79L30.1817 33.7949L31.6155 30.5223C31.7277 30.2661 31.9015 30.0416 32.1214 29.8687C32.3412 29.6958 32.6004 29.5799 32.8758 29.5313L37.8929 28.6422C38.3365 28.5635 38.793 28.6644 39.1623 28.9224C39.5315 29.1804 39.7831 29.5746 39.8617 30.0181C39.9403 30.4617 39.8395 30.9183 39.5814 31.2875C39.3234 31.6567 38.9292 31.9083 38.4857 31.9869L34.3633 32.7175L32.2734 37.4949C32.1614 37.7514 31.9878 37.9762 31.7679 38.1494C31.5481 38.3225 31.2889 38.4387 31.0133 38.4875C30.7378 38.5363 30.4545 38.5163 30.1885 38.4293C29.9226 38.3422 29.6822 38.1908 29.4889 37.9884L22.7832 30.9793L21.3494 34.252C21.2377 34.5089 21.0643 34.7342 20.8445 34.9078C20.6248 35.0814 20.3655 35.198 20.0897 35.2471ZM38.3955 9.57934C34.0787 10.3444 30.6281 12.8705 28.8283 16.4258C25.9163 13.7056 21.8078 12.5191 17.491 13.2842C14.0554 13.897 11.0033 15.8476 9.00414 18.708C7.00498 21.5684 6.22209 25.105 6.8272 28.542C6.85499 28.6987 6.88278 28.8555 6.91056 29.0123C7.00303 29.4534 7.26693 29.8397 7.6442 30.0862C8.02148 30.3327 8.48123 30.4192 8.92231 30.3268C9.36339 30.2343 9.74967 29.9704 9.99618 29.5931C10.2427 29.2158 10.3292 28.7561 10.2368 28.315C10.2153 28.1938 10.1934 28.0704 10.1719 27.9492C9.72343 25.3993 10.3045 22.7756 11.7876 20.6535C13.2708 18.5313 15.535 17.084 18.0838 16.6289C22.1497 15.9083 25.9472 17.469 27.9894 20.6948C28.1697 20.9792 28.4306 21.2036 28.7387 21.3394C29.0469 21.4752 29.3885 21.5164 29.7201 21.4576C30.0517 21.3988 30.3583 21.2428 30.601 21.0094C30.8438 20.7759 31.0116 20.4756 31.0832 20.1465C31.8913 16.4091 34.9223 13.6446 38.9882 12.9241C41.5381 12.4756 44.1618 13.0566 46.284 14.5398C48.4061 16.0229 49.8534 18.2872 50.3085 20.8359C52.2947 32.0428 37.8377 45.0707 34.4193 47.9728C31.9215 47.055 24.5444 44.117 18.5459 39.5289C18.188 39.255 17.7359 39.1344 17.2891 39.1938C16.8423 39.2532 16.4374 39.4876 16.1634 39.8455C15.8895 40.2034 15.7689 40.6555 15.8283 41.1023C15.8877 41.5491 16.1221 41.954 16.48 42.228C24.2556 48.1807 33.8256 51.3747 34.2287 51.5081C34.4954 51.5959 34.7798 51.6163 35.0563 51.5673C35.3328 51.5183 35.5929 51.4014 35.8132 51.2273C36.649 50.566 56.2466 34.8763 53.6532 20.2431C53.0404 16.8076 51.0898 13.7554 48.2294 11.7563C45.369 9.75712 41.8324 8.97422 38.3955 9.57934Z" fill="white"/>
</svg>
