<svg width="21" height="21" viewBox="0 0 21 21" fill="none" xmlns="http://www.w3.org/2000/svg">
<g clip-path="url(#clip0_706_1834)">
<path d="M20.3241 4.40806C19.6014 4.72785 18.8243 4.94531 18.0088 5.04125C18.8403 4.54237 19.4799 3.75247 19.7805 2.81227C19.0034 3.27278 18.1399 3.60857 17.2221 3.79085C16.4866 3.00735 15.4377 2.51486 14.28 2.51486C12.0542 2.51486 10.2474 4.32171 10.2474 6.54749C10.2474 6.86409 10.2825 7.1711 10.3529 7.46531C7.00143 7.29902 4.03053 5.69364 2.04459 3.25359C1.69602 3.84841 1.49774 4.54237 1.49774 5.2811C1.49774 6.67861 2.20769 7.91302 3.2918 8.63576C2.62982 8.61338 2.00942 8.43429 1.46576 8.13049C1.46576 8.14967 1.46576 8.16566 1.46576 8.18165C1.46576 10.1356 2.85368 11.7666 4.6989 12.1343C4.35992 12.2271 4.00494 12.2782 3.63718 12.2782C3.37814 12.2782 3.12231 12.2527 2.87926 12.2047C3.39094 13.8069 4.88119 14.9709 6.64326 15.0061C5.26494 16.087 3.52525 16.7298 1.63845 16.7298C1.31226 16.7298 0.992463 16.7106 0.675865 16.6722C2.46033 17.8171 4.57738 18.4855 6.85433 18.4855C14.2704 18.4855 18.3254 12.3422 18.3254 7.0144C18.3254 6.84171 18.319 6.66582 18.3126 6.49313C19.0993 5.92389 19.7837 5.21394 20.3241 4.40806Z" fill="white"/>
</g>
<defs>
<clipPath id="clip0_706_1834">
<rect width="20.9595" height="20.9595" fill="white" transform="scale(1.00193)"/>
</clipPath>
</defs>
</svg>
